<svg width="131" height="37" viewBox="0 0 131 37" fill="none" xmlns="http://www.w3.org/2000/svg"><path d="M9.568 7.316H5.669V17.66H3.916V7.316H0V6.108h9.568v1.208zm10.997 1.906V14.7c0 .63-.153 1.157-.46 1.6a2.618 2.618 0 0 1-1.242.97 7.892 7.892 0 0 1-1.55.442 10.04 10.04 0 0 1-1.65.119c-3.235 0-4.853-1.038-4.853-3.13V9.238c0-2.212 1.618-3.318 4.852-3.318 3.269 0 4.903 1.106 4.903 3.3zm-1.685 5.461V9.188c0-1.43-1.073-2.144-3.2-2.144-.46 0-.852.034-1.192.085-.34.05-.681.153-1.005.306a1.772 1.772 0 0 0-.749.664c-.17.289-.255.646-.255 1.089v5.495c0 1.327 1.072 1.99 3.217 1.99 2.128.018 3.184-.646 3.184-1.99zm12.206-6.295v2.399c0 .986-.392 1.684-1.158 2.092-.766.409-1.855.613-3.252.613H24.94v4.168h-1.736V6.108h3.779c.477 0 .885.017 1.226.034.34.017.715.085 1.09.17.39.085.697.221.919.374.238.154.425.375.595.664.205.29.273.63.273 1.038zM29.4 10.702v-2.11a1.25 1.25 0 0 0-.255-.8 1.392 1.392 0 0 0-.715-.442 4.18 4.18 0 0 0-.783-.153 9.126 9.126 0 0 0-.783-.034h-1.941v5.223h1.975c.68 0 1.277-.12 1.753-.391.511-.221.75-.664.75-1.293zm12.121 6.958h-8.903v-1.208l6.81-9.136h-6.623V6.108h8.631v1.208l-6.81 9.136h6.912v1.208h-.017zm12.053 0H51.77l-1.311-3.505h-4.954l-1.294 3.505H42.51l4.596-11.552h1.992l4.477 11.552zm-3.54-4.696l-1.958-5.223h-.154l-1.957 5.223h4.068zm7.031 4.696h-1.737V6.108h1.737V17.66zm7.814 0H62.63l-5.515-6.142 5.175-5.41h2.077l-5.21 5.342 5.72 6.21zm11.168 0h-1.805l-1.31-3.505h-4.955l-1.294 3.505h-1.702l4.596-11.552h1.992l4.478 11.552zm-3.541-4.696l-1.958-5.223h-.153l-1.958 5.223h4.069z" fill="#fff"/><path d="M86.567 17.66h-9.55v-1.684l6.026-7.894h-5.84V6.108h9.262v1.667l-6.027 7.895h6.13v1.99zm10.913 0h-9.55v-1.684l6.026-7.894h-5.84V6.108h9.261v1.667l-6.026 7.895h6.129v1.99z" fill="#FFB800"/><path d="M63.244 26.627c-.221.425-1.855 2.858-2.996 3.794-.017.017-.034.05-.068.068-.17.102-.375.255-.562.323-.119.051-.221.034-.357.017-.068.017-.154-.017-.222-.085l-.017-.017-.05-.068c-.205-.272-.222-.323-.46-.561-.324-.324-.017-.851-.017-.885.102-.272 3.728-8.2 3.71-8.184-.067.017.375-.902.563-1.072.068-.05.119-.05.17-.034.068-.017.17 0 .221.068.136.188.273.375.392.562a.623.623 0 0 1 .136.323.923.923 0 0 1-.034.476c-.136.324-2.35 4.85-2.52 5.156a7.26 7.26 0 0 0-.562 1.157 20.987 20.987 0 0 1-.715 2.058c0 .017.017.051.017.068.086.204 3.627-3.607 3.371-3.164z" fill="#fff"/><path d="M66.615 28.634c-.187.426-.46.817-.817 1.123-.528.51-1.413 1.208-2.077 1.174-.068.068-1.515-.51-1.634-1.31-.12-.834.408-1.803.732-2.552a16.38 16.38 0 0 1 .85-1.735c.205-.358.41-.936.75-1.174.374-.273.783 0 1.123.272.069.17.12.323.137.493.017.051.068.136.119.085.136-.034.272-.068.374-.05.085.033.17.033.273.067a.96.96 0 0 1 .527.562c.018.017.086 1.038.035 1.463-.035.204-.17.85-.035.817.511-.136 1.022-.34 1.516-.545.034.017.034.068-.017.12-.46.578-1.124 1.071-1.856 1.19zm-.817-.017c-.017 0-.102-.068-.12-.068-.868-.306-1.26-1.072-1.191-1.94-.323.46-.596.936-.783 1.464-.136.374-.477 1.19-.205 1.463.018.017.018.034.052.051.22.306.493.596.919.46.613-.222 1.021-.766 1.413-1.277.017-.05-.017-.136-.085-.153zm-.426-2.552c-.255.579-.374 1.26.085 1.736.102.119.273.238.426.204.221-.051.255-.306.272-.494 0-.017.051-.561.068-.816.069-.51-.408-1.668-.85-.63z" fill="#fff"/><path d="M73.595 26.729c-.46 1.242-.715 1.957-1.243 3.165-.425 1.003-.868 2.058-1.583 2.875-.358.646-1.022 1.565-1.669 1.344-1.157-.374-1.498-1.65-1.906-2.637-.051-.153.119-.306.255-.255l.239.068c.22.255.357.561.51.85.12.222.205.562.409.715.391.272.647-.374.766-.664a22.918 22.918 0 0 0 2.4-4.678 41.626 41.626 0 0 0-2.451 2.348c-.034.034-.068.068-.12.068-.016.034-.067.034-.118.034-.222.017-.443-.222-.596-.375-.239-.238-.63-.714-.511-1.157.238-.765.613-1.48.97-2.212.239-.476.494-1.037.834-1.514.715-.442 1.6-.697 2.452-.595l.017.017.17.034.068.034c.222.187.375.425.528.663.102.222.187.426.29.63-.426-.153-1.073-.919-1.567-.732-.017 0-.034 0-.05.017-.24.12-.324.426-.426.664l-.069.119a20.574 20.574 0 0 0-1.464 2.858c-.05.12-.102.221-.136.34.273-.22.613-.544.75-.663a241.41 241.41 0 0 0 1.736-1.616c.119-.306.29-.63.528-.766.323-.17.561.391.817.528.068.017.102.085.102.153.102.119.119.22.068.34zm1.583 3.777c-.17.102-.374.255-.561.323-.137.05-.239.034-.358.017a.222.222 0 0 1-.221-.085l-.017-.017c-.017-.017-.051-.034-.051-.068-.222-.272-.222-.323-.477-.562-.323-.323-.017-.85-.017-.884.102-.273 1.822-3.965 1.805-3.948-.069.017.374-.918.561-1.072a.162.162 0 0 1 .17-.034.234.234 0 0 1 .222.069c.12.17.272.374.374.561a.435.435 0 0 1 .137.323.911.911 0 0 1-.017.477c-.12.323-.426.612-.613.918a7.258 7.258 0 0 0-.562 1.157 26.7 26.7 0 0 1-.715 2.059c0 .017.017.051.017.068.12.221 3.66-3.59 3.405-3.148-.222.426-1.856 2.859-2.997 3.795-.017 0-.05.017-.085.05zm1.481-7.163c-.119-.494.137-1.208.375-1.616.068-.103.153-.103.221-.069 0-.102.069-.204.188-.153.357.153.868.528.817 1.021-.017.187-.136.323-.273.425-.238.188-.408.324-.561.596-.256.391-.681.221-.767-.204z" fill="#fff"/><path d="M80.524 27.681c.119.647.017 1.225-.222 1.787-.306 1.055-1.583 1.531-2.604 1.361-1.21-.204-1.55-1.412-.852-2.348.494-.68 1.192-1.242 1.958-1.684-.255-.97-.068-1.99.545-2.672l.238-.408c.205-.306.477-.714.868-.765 0-.017.017 0 .017 0 .018-.017.052-.017.086-.017.544.085.715.646.783 1.123v.034c.034.068.017.17-.051.238-.017.068-.034.119-.103.153-.476.323-.953.697-1.157 1.259 0 .068.017.136.034.221 0 .12.017.255.051.374.392.017 1.464.051 1.566.154-.272.017-1.14.136-1.396.255-.119.05-.068.17 0 .22.102.24.188.477.239.715zm-1.38.017c0-.017 0-.017-.016-.034a.78.78 0 0 0-.12-.272c-.034-.068-.119-.068-.17-.05-.034 0-.068 0-.102.016-.63.392-1.856 1.26-1.532 2.16.12.358.63.528 1.055.477.375-.017.766-.136.97-.374.58-.578.222-1.31-.084-1.922z" fill="#fff"/><path d="M85.92 26.627c-.221.425-1.838 2.858-2.996 3.794-.017.017-.034.05-.068.068-.17.102-.375.255-.562.323-.136.051-.238.034-.357.017a.235.235 0 0 1-.222-.085l-.017-.017c-.017-.017-.05-.034-.05-.068-.222-.272-.222-.323-.477-.561-.324-.324-.018-.851-.035-.885a676.4 676.4 0 0 1 2.758-6.057h-1.566c-.272 0-.272-.408 0-.408h1.754c.46-1.021.783-1.719.766-1.719-.068.017.374-.902.561-1.072.069-.05.12-.05.17-.034.069-.017.171 0 .222.068.12.188.272.375.392.562a.511.511 0 0 1 .136.323.913.913 0 0 1-.017.476l-.664 1.396h2.366c.255 0 .255.408 0 .408h-2.57a156.017 156.017 0 0 1-1.669 3.352 7.26 7.26 0 0 0-.562 1.157c-.22.697-.46 1.395-.732 2.058 0 .017.017.051.034.068.137.204 3.66-3.607 3.405-3.164z" fill="#fff"/><path d="M86.006 30.506c-.17.102-.375.255-.562.323-.136.05-.239.034-.358.017a.222.222 0 0 1-.221-.085l-.017-.017c-.017-.017-.051-.034-.051-.068-.221-.272-.221-.323-.477-.562-.323-.323-.017-.85-.017-.884.102-.273 1.822-3.965 1.805-3.948-.068.017.374-.918.561-1.072a.162.162 0 0 1 .17-.034.234.234 0 0 1 .222.069c.12.17.272.374.375.561a.435.435 0 0 1 .136.323.913.913 0 0 1-.017.477c-.12.323-.426.612-.613.918a7.258 7.258 0 0 0-.562 1.157 26.7 26.7 0 0 1-.715 2.059c0 .017.017.051.017.068.12.221 3.66-3.59 3.405-3.148-.221.426-1.856 2.859-2.996 3.795-.017 0-.051.017-.085.05zm1.48-7.163c-.118-.494.137-1.208.375-1.616.068-.103.153-.103.221-.069 0-.102.069-.204.188-.153.357.153.868.528.817 1.021-.017.187-.136.323-.273.425-.238.188-.408.324-.561.596-.256.391-.681.221-.766-.204z" fill="#fff"/><path d="M93.411 27.58a24.484 24.484 0 0 1-2.077 1.7c-.51.375-1.192 1.072-1.856 1.123-.323.018-.544-.05-.697-.22-2.367-1.804.323-4.441 1.736-6.058l.017-.017.12-.136a.184.184 0 0 1 .22-.034c.069-.05.17-.05.256.017.255.221.51.426.766.664a.757.757 0 0 1 .187.136c.085-.153.17-.306.29-.442.136-.17.34-.273.544-.154.17.103.273.375.154.562-.273.374-.46.765-.545 1.208a.323.323 0 0 1-.273.272c-.255.136-.63.034-.63-.323.035-.868-.766-.34-1.055.017-.17.221-.323.476-.443.748-.238.477-.561 1.208-.663 1.804 0 .204.016.425.119.612.068.205.221.273.374.256.579.017 1.89-.92 1.924-.936.425-.255.817-.51 1.209-.8.289-.102.442-.136.323 0z" fill="#fff"/><path d="M96.288 27.681c.12.647.017 1.225-.221 1.787-.306 1.055-1.583 1.531-2.605 1.361-1.209-.204-1.549-1.412-.851-2.348.494-.68 1.192-1.242 1.958-1.684-.256-.97-.068-1.99.545-2.672l.238-.408c.204-.306.477-.714.868-.765 0-.017.017 0 .017 0 .017-.017.051-.017.085-.017.545.085.715.646.783 1.123v.034c.034.068.017.17-.05.238-.018.068-.035.119-.103.153-.477.323-.953.697-1.157 1.259 0 .068.017.136.034.221 0 .12.017.255.05.374.392.017 1.465.051 1.567.154-.272.017-1.14.136-1.396.255-.12.05-.068.17 0 .22.102.24.187.477.238.715zm-1.362.017c0-.017 0-.017-.017-.034a.782.782 0 0 0-.119-.272c-.034-.068-.12-.068-.17-.05-.034 0-.068 0-.102.016-.63.392-1.856 1.26-1.532 2.16.119.358.63.528 1.055.477.375-.017.766-.136.97-.374.562-.578.205-1.31-.085-1.922z" fill="#fff"/><path d="M131 18.648h-20.991l-10.725 18.34h21.008L131 18.648z" fill="#E2A300"/><path d="M131 18.647l-10.742 18.341L99.284 0h21.144L131 18.647z" fill="#FFB800"/></svg>