<svg width="50" height="50" viewBox="0 0 50 50" fill="none" xmlns="http://www.w3.org/2000/svg"><path d="M5.831 4.187a.833.833 0 1 1-1.666 0 .833.833 0 0 1 1.666 0zm3.332 0a.833.833 0 1 1-1.666 0 .833.833 0 0 1 1.666 0zm3.332 0a.833.833 0 1 1-1.666 0 .833.833 0 0 1 1.666 0zm4.998-.833a.833.833 0 0 0 0 1.666h20.824a.833.833 0 0 0 0-1.666H17.493z" fill="#fff"/><path d="M12.011 40.837H1.666V8.352h36.65a.833.833 0 0 0 0-1.666H1.666V1.688h39.15v10.345a.833.833 0 0 0 1.665 0V.855a.833.833 0 0 0-.833-.833H.833A.833.833 0 0 0 0 .855V41.67c0 .46.373.833.833.833h11.178a.833.833 0 0 0 0-1.666zm37.725 5.381l-4.581-4.548 2.682-1.79a.833.833 0 0 0 .367-.833.833.833 0 0 0-.617-.667l-11.186-2.974a.833.833 0 0 0-1.017 1.017l2.932 11.186c.081.32.342.561.667.617a.833.833 0 0 0 .833-.367l1.832-2.682 4.582 4.581c.157.156.37.243.59.242a.834.834 0 0 0 .592-.242l2.358-2.357a.832.832 0 0 0-.034-1.183zm-2.948 1.774l-4.715-4.714a.831.831 0 0 0-.583-.241h-.083a.831.831 0 0 0-.608.366l-1.333 1.991-2.108-8.013 8.014 2.107-1.991 1.35a.831.831 0 0 0-.367.608.832.832 0 0 0 .242.666l4.714 4.714-1.182 1.166z" fill="#fff"/><path d="M34.618 43.76a16.542 16.542 0 0 1-5.465 1.242v-7.497a33.21 33.21 0 0 1 3.682.292.841.841 0 0 0 .234-1.666 35.219 35.219 0 0 0-3.916-.291v-6.664h8.33a29.84 29.84 0 0 1-.383 3.898.844.844 0 1 0 1.666.275c.221-1.381.35-2.775.383-4.173h5.83a16.538 16.538 0 0 1-1.198 5.464.833.833 0 1 0 1.54.625c.89-2.199 1.34-4.55 1.325-6.922a18.248 18.248 0 0 0-4.282-11.753 18.325 18.325 0 0 0-14.043-6.572h-.6a18.384 18.384 0 0 0-11.062 4.164.835.835 0 1 0 1.058 1.291 16.814 16.814 0 0 1 4.84-2.782 16.284 16.284 0 0 0-3.216 5.19 32.84 32.84 0 0 1-4.165-1.491.833.833 0 0 0-.95.216s-.041 0-.058.05a18.384 18.384 0 0 0-4.165 11.662c0 4.26 1.492 8.385 4.215 11.662l.059.066a18.274 18.274 0 0 0 14.044 6.622 18.154 18.154 0 0 0 6.922-1.366.832.832 0 1 0-.625-1.541zm-7.13 1.167c-2.657-.425-4.998-2.915-6.506-6.58a32.05 32.05 0 0 1 6.506-.842v7.422zm0-9.087a33.534 33.534 0 0 0-7.089.907 27.344 27.344 0 0 1-1.241-7.571h8.33v6.664zm-15.785-6.664h5.789a28.88 28.88 0 0 0 1.3 8.03 33.56 33.56 0 0 0-3.632 1.29 16.544 16.544 0 0 1-3.457-9.32zm23.906-10.829a32.15 32.15 0 0 1-6.456.833v-7.413c2.633.441 4.948 2.94 6.456 6.58zm-8.121 9.163h-8.33a27.05 27.05 0 0 1 1.25-7.597c2.32.563 4.693.875 7.08.933v6.664zm1.666-6.664a33.57 33.57 0 0 0 7.03-.9 27.043 27.043 0 0 1 1.25 7.564h-8.28v-6.664zM44.98 27.51h-5.83a28.843 28.843 0 0 0-1.292-8.022 32.743 32.743 0 0 0 3.682-1.299 16.544 16.544 0 0 1 3.44 9.32zm-4.581-10.654a31.782 31.782 0 0 1-3.107 1.067 15.978 15.978 0 0 0-3.232-5.215 16.754 16.754 0 0 1 6.297 4.148h.042zm-12.911-5.098v7.422a32.052 32.052 0 0 1-6.506-.833c1.508-3.673 3.849-6.164 6.506-6.589zM17.492 27.51h-5.83a16.662 16.662 0 0 1 3.44-9.321c1.187.5 2.403.93 3.64 1.291a28.777 28.777 0 0 0-1.25 8.03zm-1.208 12.32c1-.402 2.021-.752 3.057-1.05a16.27 16.27 0 0 0 3.199 5.164 16.591 16.591 0 0 1-6.256-4.114zm31.261-19.5c.128.31.43.515.767.516.11.003.217-.02.316-.067a.833.833 0 0 0 .45-1.082 22.054 22.054 0 0 0-3.465-5.723.833.833 0 0 0-1.274 1.041 20.6 20.6 0 0 1 3.206 5.315zM11.02 13.974a22.491 22.491 0 0 0-5.19 14.369.833.833 0 0 0 1.667 0 20.823 20.823 0 0 1 4.806-13.328.834.834 0 1 0-1.283-1.066v.025z" fill="#fff"/></svg>