<svg width="15" height="15" viewBox="0 0 15 15" fill="none" xmlns="http://www.w3.org/2000/svg"><path d="M12.805 12.722c-2.926 2.908-7.684 2.908-10.61 0a7.427 7.427 0 0 1 0-10.542c2.926-2.907 7.684-2.907 10.61 0a7.427 7.427 0 0 1 0 10.542zM2.635 2.618a6.807 6.807 0 0 0 0 9.663c2.683 2.665 7.044 2.665 9.726 0a6.807 6.807 0 0 0 0-9.663c-2.682-2.665-7.043-2.665-9.726 0z" fill="#231F20"/><path d="M7.722 12.064a.313.313 0 0 1-.222.09.313.313 0 0 1-.313-.31V3.058a.313.313 0 0 1 .626 0v8.784a.308.308 0 0 1-.091.22z" fill="#231F20"/><path d="M12.142 7.672a.313.313 0 0 1-.222.09H3.08a.313.313 0 0 1-.313-.31c0-.171.14-.311.312-.311h8.841a.312.312 0 0 1 .222.53z" fill="#231F20"/></svg>