<svg width="22" height="20" viewBox="0 0 22 20" fill="none" xmlns="http://www.w3.org/2000/svg"><path d="M19.739 10.682v8.003H4.386v-8.003h15.353zm1.306-1.298H3.08V20h17.966V9.384z" fill="#030104"/><path d="M16.145 9.384l1.838 1.837c-.016.065-.04.13-.04.204a1.06 1.06 0 0 0 1.06 1.062c.074 0 .131-.025.205-.041l1.838 1.838v-4.9h-4.9zm1.225 6.369a1.062 1.062 0 1 0 0-2.123 1.062 1.062 0 0 0 0 2.123zm-5.308 1.724c1.773 0 3.21-1.247 3.21-2.785s-1.437-2.785-3.21-2.785c-1.772 0-3.21 1.247-3.21 2.785s1.438 2.785 3.21 2.785zm-5.308-1.724a1.062 1.062 0 1 0 0-2.123 1.062 1.062 0 0 0 0 2.123zm-3.675-1.469l1.837-1.838c.066.016.131.04.205.04a1.06 1.06 0 0 0 1.061-1.06c0-.074-.024-.132-.04-.205l1.837-1.837h-4.9v4.9zm3.103 3.674a1.06 1.06 0 0 0-1.061-1.061c-.074 0-.131.024-.205.04L3.08 15.1V20h4.9l-1.84-1.838c.017-.073.041-.139.041-.204zm12.822-1.062a1.06 1.06 0 0 0-1.062 1.062c0 .074.025.13.041.204L16.145 20h4.9v-4.9l-1.837 1.837c-.065-.016-.13-.04-.204-.04zm-3.92-9.416a1.062 1.062 0 1 0 0-2.123 1.062 1.062 0 0 0 0 2.124z" fill="#030104"/><path d="M1.854 9.383c0-.677.547-1.225 1.225-1.225h.67l.032-.106 9.449-5.177.727.212c.016.065.024.13.065.196a1.05 1.05 0 0 0 1.437.416c.066-.032.107-.09.155-.13l.727.212 1.65 3.005-.22.727c-.066.017-.131.025-.197.057-.236.131-.4.343-.481.58h3.128l-2.116-3.854L15.761 0l-4.295 2.352-7.162 3.92L0 8.632l1.854 3.39v-2.64z" fill="#030104"/><path d="M9.09 6.525c-.71.392-1.225.98-1.511 1.625h5.904a2.633 2.633 0 0 0-.245-.727c-.735-1.339-2.597-1.747-4.148-.898z" fill="#030104"/></svg>