<svg width="19" height="20" viewBox="0 0 19 20" fill="none" xmlns="http://www.w3.org/2000/svg"><path d="M18.133 5.94c0-.007 0-.013-.005-.013 0-.011-.006-.017-.006-.029 0-.006-.006-.017-.006-.023 0-.006-.006-.012-.006-.018a.314.314 0 0 0-.041-.076L14.266.193A.432.432 0 0 0 13.903 0H4.242c-.146 0-.28.07-.363.193L.076 5.781a.43.43 0 0 0-.04.076c0 .006-.007.012-.007.018-.006.006-.006.017-.006.023 0 .012-.005.018-.005.03 0 .005 0 .011-.006.011A.452.452 0 0 0 0 6.027V19.56c0 .24.199.439.439.439h17.267c.24 0 .44-.199.44-.439V6.027c-.007-.03-.007-.059-.013-.088zm-1.264-.352H11.2l-.532-4.71h2.996l3.206 4.71zm-9.104.878h2.604v3.218L9.32 8.947a.445.445 0 0 0-.251-.082.445.445 0 0 0-.252.082l-1.047.737V6.466h-.006zM9.784.878l.532 4.71H7.817L8.35.878h1.434zm-5.308 0h2.996l-.532 4.71H1.27L4.476.878zm12.786 18.244H.878V6.466h6.015v4.06a.45.45 0 0 0 .234.393.442.442 0 0 0 .456-.03L9.07 9.842l1.486 1.047a.444.444 0 0 0 .456.036.44.44 0 0 0 .234-.393v-4.06h6.016v12.65z" fill="#000"/><path d="M5.851 14.354H2.738a.442.442 0 0 0-.439.438c0 .24.2.44.44.44H5.85c.24 0 .439-.2.439-.44a.442.442 0 0 0-.439-.438zm-1.556 1.843H2.738a.442.442 0 0 0-.439.438c0 .24.2.44.44.44h1.556c.24 0 .438-.2.438-.44a.442.442 0 0 0-.438-.439z" fill="#000"/></svg>