<svg width="20" height="22" viewBox="0 0 20 22" fill="none" xmlns="http://www.w3.org/2000/svg"><path d="M19.823 4.708L10.136.03a.313.313 0 0 0-.272 0L.177 4.708A.313.313 0 0 0 0 4.989v11.358c0 .12.069.23.177.281l9.687 4.677a.313.313 0 0 0 .272 0l9.687-4.677a.312.312 0 0 0 .177-.281V4.989a.31.31 0 0 0-.177-.281zM10 .66l8.969 4.33-2.6 1.254a.312.312 0 0 0-.053-.033l-8.908-4.3L10 .66zM6.702 2.264l8.956 4.324-1.834.885-8.952-4.322 1.83-.887zm9.165 4.916v3.274l-1.713.827V8.008l1.713-.828zm3.508 8.97l-9.063 4.376V9.862l2.162-1.043a.313.313 0 0 0-.272-.563L10 9.319 9.133 8.9a.312.312 0 1 0-.271.563l.825.4v10.663L.625 16.15V5.487L7.526 8.82a.311.311 0 0 0 .417-.146.313.313 0 0 0-.145-.417L1.03 4.989 4.136 3.49l9.389 4.533.004.005v3.75a.313.313 0 0 0 .448.282l2.339-1.129a.312.312 0 0 0 .177-.281V6.879l2.882-1.392v10.664z" fill="#000"/><path d="M3.204 14.939l-1.421-.687a.312.312 0 1 0-.272.563l1.422.687a.31.31 0 0 0 .417-.146.312.312 0 0 0-.146-.417zm1.309-.852L1.785 12.77a.313.313 0 0 0-.272.563L4.24 14.65a.312.312 0 1 0 .272-.563z" fill="#000"/></svg>