<svg width="30" height="31" viewBox="0 0 30 31" fill="none" xmlns="http://www.w3.org/2000/svg"><path d="M28.802 6.84L14.727.045a.454.454 0 0 0-.395 0L.257 6.84A.454.454 0 0 0 0 7.25v16.502c0 .174.1.333.257.409l14.075 6.795a.454.454 0 0 0 .395 0l14.075-6.795a.454.454 0 0 0 .257-.409V7.249c0-.174-.1-.333-.257-.409zM14.529.958L27.56 7.25l-3.777 1.824a.45.45 0 0 0-.077-.049L10.764 2.776 14.529.958zM9.738 3.29L22.75 9.57l-2.665 1.287-13.007-6.28 2.66-1.288zm13.316 7.143v4.755l-2.489 1.202v-4.756l2.49-1.201zm5.096 13.033l-13.167 6.356V14.33l3.141-1.516a.454.454 0 0 0-.395-.818l-3.2 1.545-1.259-.608a.454.454 0 1 0-.395.818l1.2.579v15.493L.908 23.466V7.972l10.027 4.84a.452.452 0 0 0 .606-.21.454.454 0 0 0-.211-.607L1.499 7.249l4.51-2.178 13.642 6.585.006.008v5.45a.454.454 0 0 0 .651.409l3.398-1.64a.454.454 0 0 0 .256-.41V9.994l4.188-2.021v15.493z" fill="#000"/></svg>