<svg width="20" height="20" viewBox="0 0 20 20" fill="none" xmlns="http://www.w3.org/2000/svg"><path d="M19.825 4.546a.781.781 0 0 0-.606-.288H5.068l-.058-.533-.002-.017A4.274 4.274 0 0 0 .78 0a.781.781 0 1 0 0 1.563 2.708 2.708 0 0 1 2.676 2.34l.93 8.532a2.347 2.347 0 0 0-1.38 2.174 2.346 2.346 0 0 0 2.345 2.344h.317A2.307 2.307 0 0 0 7.851 20a2.307 2.307 0 0 0 2.183-3.047h3.37A2.307 2.307 0 0 0 15.586 20a2.307 2.307 0 0 0 2.305-2.305 2.307 2.307 0 0 0-2.305-2.304H5.352a.782.782 0 0 1-.782-.82c0-.431.35-.782.782-.782h9.973c1.387 0 2.66-.858 3.243-2.186a.781.781 0 0 0-1.43-.628c-.33.749-1.058 1.252-1.813 1.252h-9.39L5.238 5.82h13.02l-.383 1.833a.781.781 0 0 0 1.53.319l.578-2.773a.781.781 0 0 0-.158-.653zm-4.24 12.407a.743.743 0 1 1 0 1.486.743.743 0 0 1 0-1.486zm-7.733 0a.743.743 0 1 1-.002 1.486.743.743 0 0 1 .002-1.486z" fill="#333"/></svg>