<svg width="30" height="22" viewBox="0 0 30 22" fill="none" xmlns="http://www.w3.org/2000/svg"><path d="M30 21.563h-2.813v-.938h1.875V4.687H4.688v15.938h1.875v.938H3.75V3.75H30v17.813z" fill="#363F40"/><path d="M20.156 20.625h-6.562v.938h6.562v-.938zm-15.937-.937H1.875V1.875h26.25v2.344h-.938V2.812H2.813V18.75H4.22v.938z" fill="#363F40"/><path d="M2.344 17.813H0V0h26.25v2.344h-.938V.938H.938v15.937h1.407v.938z" fill="#363F40"/><path d="M15 16.875H7.5v-4.688c0-1.035.84-1.874 1.875-1.874v.937a.94.94 0 0 0-.938.938v3.75h5.626v-3.75a.94.94 0 0 0-.938-.938v-.938c1.036 0 1.875.84 1.875 1.876v4.687z" fill="#363F40"/><path d="M11.25 11.25a2.345 2.345 0 1 1 .002-4.69 2.345 2.345 0 0 1-.002 4.69zm0-3.75a1.41 1.41 0 0 0-1.406 1.406 1.41 1.41 0 0 0 1.406 1.406 1.41 1.41 0 0 0 1.406-1.406A1.41 1.41 0 0 0 11.25 7.5zm.469 4.688h-.938v.937h.938v-.938zm0 1.875h-.938V15h.938v-.938zm10.312-1.875h-5.156v.937h5.156v-.938zm4.219-2.813h-9.375v.938h9.375v-.938zm0 2.813h-3.281v.937h3.281v-.938zm0 1.875h-9.375V15h9.375v-.938zm-5.625 1.875h-3.75v.937h3.75v-.938zM22.031 7.5h-.937v.938h.937V7.5zm1.875 0h-.937v.938h.937V7.5zm-3.75 0h-.937v.938h.937V7.5zm-7.5 14.063h-1.875v-.938h.938v-.938H8.438v.938h.937v.938H7.5V18.75h5.156v2.813zm13.594 0h-1.875v-.938h.938v-.938H22.03v.938h.938v.938h-1.875V18.75h5.156v2.813z" fill="#363F40"/></svg>