<svg width="37" height="24" viewBox="0 0 37 24" fill="none" xmlns="http://www.w3.org/2000/svg"><path d="M34.178 9.855l-.952-3.807a.575.575 0 0 0 .455-.562v-.614a2.42 2.42 0 0 0-2.416-2.417H26.93V1.19A1.19 1.19 0 0 0 25.74 0H3.645a1.19 1.19 0 0 0-1.189 1.19v10.434a.575.575 0 0 0 1.151 0V1.189c0-.021.017-.038.038-.038H25.74c.022 0 .039.017.039.038v10.435a.575.575 0 0 0 1.15 0v-.653h6.792c.835.001 1.544.55 1.788 1.305h-1.79a.575.575 0 0 0-.575.575v1.228c0 .994.809 1.803 1.803 1.803h.652v2.531h-1.504a3.65 3.65 0 0 0-3.444-2.455 3.65 3.65 0 0 0-3.444 2.455h-.277V14.08a.575.575 0 0 0-1.151 0v4.334H13.84a3.65 3.65 0 0 0-3.444-2.455 3.65 3.65 0 0 0-3.444 2.455H3.644a.038.038 0 0 1-.038-.038V17.11h2.493a.575.575 0 0 0 0-1.15H.575a.575.575 0 0 0 0 1.15h1.88v1.266c0 .656.534 1.19 1.19 1.19h3.108l-.001.038a3.648 3.648 0 0 0 3.644 3.644 3.648 3.648 0 0 0 3.644-3.644v-.039h12.967v.039a3.648 3.648 0 0 0 3.644 3.644 3.648 3.648 0 0 0 3.644-3.644l-.001-.039h1.88a.576.576 0 0 0 .576-.575v-6.14a3.035 3.035 0 0 0-2.572-2.996zM26.93 3.606h4.335c.698 0 1.266.568 1.266 1.266v.038H26.93V3.606zm0 6.215V6.06h5.113l.94 3.76H26.93zM10.396 22.096a2.496 2.496 0 0 1-2.494-2.493 2.496 2.496 0 0 1 2.494-2.494 2.496 2.496 0 0 1 2.493 2.494 2.496 2.496 0 0 1-2.493 2.493zm20.255 0a2.496 2.496 0 0 1-2.494-2.493 2.496 2.496 0 0 1 2.494-2.494 2.496 2.496 0 0 1 2.493 2.494 2.496 2.496 0 0 1-2.493 2.493zm4.948-7.365h-.652a.653.653 0 0 1-.652-.652v-.652H35.6v1.304z" fill="#000"/><path d="M10.396 18.413a1.19 1.19 0 0 0-1.19 1.19 1.19 1.19 0 0 0 2.378 0 1.19 1.19 0 0 0-1.188-1.19zm20.254 0a1.19 1.19 0 0 0-1.188 1.19 1.19 1.19 0 0 0 1.189 1.189 1.19 1.19 0 0 0 1.19-1.19 1.19 1.19 0 0 0-1.19-1.189zm-6.75-2.455h-8.594a.575.575 0 1 0 0 1.151H23.9a.575.575 0 0 0 0-1.15zM9.168 13.503H1.803a.575.575 0 1 0 0 1.151h7.365a.576.576 0 0 0 0-1.15zm10.842-7.81a.575.575 0 0 0-.814 0l-5.117 5.117-2.662-2.662a.575.575 0 1 0-.814.813l3.069 3.07a.574.574 0 0 0 .813 0l5.524-5.525a.575.575 0 0 0 0-.813z" fill="#000"/></svg>