<svg width="26" height="16" viewBox="0 0 26 16" fill="none" xmlns="http://www.w3.org/2000/svg"><path d="M23.523 6.783l-.655-2.62a.396.396 0 0 0 .314-.387v-.423c0-.917-.747-1.663-1.664-1.663h-2.983V.818A.82.82 0 0 0 17.716 0H2.508a.82.82 0 0 0-.818.818V8a.396.396 0 0 0 .792 0V.818c0-.014.012-.026.026-.026h15.208c.015 0 .027.012.027.026V8a.396.396 0 0 0 .792 0v-.449h4.674c.575 0 1.063.378 1.23.898h-1.231a.396.396 0 0 0-.396.396v.845c0 .684.557 1.24 1.24 1.24h.45v1.743h-1.036a2.512 2.512 0 0 0-2.37-1.69c-1.097 0-2.03.708-2.37 1.69h-.191V9.69a.396.396 0 1 0-.793 0v2.983H9.527a2.512 2.512 0 0 0-2.37-1.69 2.513 2.513 0 0 0-2.371 1.69H2.508a.026.026 0 0 1-.026-.026v-.871h1.716a.396.396 0 0 0 0-.793H.396a.396.396 0 1 0 0 .793H1.69v.87a.82.82 0 0 0 .818.82h2.14l-.001.026A2.511 2.511 0 0 0 7.155 16a2.511 2.511 0 0 0 2.508-2.508v-.027h8.925v.027A2.511 2.511 0 0 0 21.095 16a2.511 2.511 0 0 0 2.508-2.508v-.027h1.294a.396.396 0 0 0 .396-.396V8.845a2.09 2.09 0 0 0-1.77-2.062zm-4.988-4.301h2.983c.48 0 .872.39.872.871v.027h-3.855v-.898zm0 4.277V4.172h3.519l.647 2.587h-4.166zm-11.38 8.449c-.946 0-1.716-.77-1.716-1.716 0-.947.77-1.716 1.716-1.716s1.716.77 1.716 1.716-.77 1.716-1.716 1.716zm13.94 0c-.945 0-1.715-.77-1.715-1.716 0-.947.77-1.716 1.716-1.716s1.716.77 1.716 1.716-.77 1.716-1.716 1.716zm3.407-5.07h-.449a.45.45 0 0 1-.449-.448v-.45h.898v.898z" fill="#000"/><path d="M7.155 12.673a.82.82 0 0 0 0 1.637.82.82 0 0 0 0-1.637zm13.941 0a.82.82 0 0 0 0 1.637.82.82 0 0 0 0-1.637zm-4.647-1.689h-5.914a.396.396 0 0 0 0 .792h5.914a.396.396 0 0 0 0-.792zM6.31 9.294H1.24a.396.396 0 0 0 0 .792h5.07a.396.396 0 1 0 0-.792zm7.462-5.376a.396.396 0 0 0-.56 0L9.69 7.44 7.858 5.608a.396.396 0 1 0-.56.56L9.41 8.28a.395.395 0 0 0 .56 0l3.802-3.802a.396.396 0 0 0 0-.56z" fill="#000"/></svg>