<svg width="24" height="26" viewBox="0 0 24 26" fill="none" xmlns="http://www.w3.org/2000/svg"><path d="M8.593 17.404a1.562 1.562 0 0 1-1.563-1.562h.781a.782.782 0 0 0 1.562.001c0-.255-.554-.645-.94-.817-.235-.106-1.403-.672-1.403-1.527a1.562 1.562 0 1 1 3.125 0h-.781a.784.784 0 0 0-.781-.782.784.784 0 0 0-.782.781c0 .254.555.645.942.817.234.105 1.402.672 1.402 1.527 0 .863-.7 1.562-1.562 1.562z" fill="#363F40"/><path d="M8.983 11.155h-.78v1.172h.78v-1.172zm0 5.859h-.78v1.172h.78v-1.172zm2.735-2.734h-.781v.781h.78v-.781zm-5.468 0h-.782v.781h.781v-.781z" fill="#363F40"/><path d="M10.155 25.998h-7.42A2.737 2.737 0 0 1 0 23.264v-6.25c0-6.89 3.015-8.5 5.011-9.566.559-.296 1.04-.554 1.352-.867l.55.551c-.394.395-.921.676-1.535 1.004C3.441 9.175.781 10.593.781 17.014v6.25c0 1.078.875 1.953 1.953 1.953h7.421v.78zm7.031-9.375h-.781c0-6.327-2.606-7.577-4.508-8.491-.625-.3-1.21-.582-1.624-.996l.55-.55c.32.32.824.562 1.41.843 1.973.945 4.953 2.375 4.953 9.195z" fill="#363F40"/><path d="M10.546 7.25H6.64a.783.783 0 0 1-.781-.782v-.781c0-.43.351-.781.781-.781h3.906c.43 0 .781.351.781.78v.782c0 .43-.351.781-.781.781zM6.64 5.686v.78h3.906v-.78H6.64z" fill="#363F40"/><path d="M10.155 5.687H7.031a.382.382 0 0 1-.348-.215L5.121 2.347a.388.388 0 0 1 .175-.523l1.563-.781a.389.389 0 0 1 .347 0l1.387.691 1.387-.695a.389.389 0 0 1 .347 0l1.563.78c.191.099.27.333.175.524l-1.562 3.125a.379.379 0 0 1-.348.219zm-2.882-.781h2.64l1.281-2.559-1.039-.52-1.386.696a.389.389 0 0 1-.348 0l-1.39-.695-1.04.52 1.282 2.558zm3.664 1.562v-.781c.644 0 1.171-.527 1.171-1.172h.781a1.954 1.954 0 0 1-1.952 1.953zm-4.687 0a1.954 1.954 0 0 1-1.954-1.953h.782c0 .645.527 1.172 1.171 1.172v.781zm2.343 13.28a5.083 5.083 0 0 1-5.078-5.078c0-2.8 2.277-5.077 5.078-5.077 2.8 0 5.078 2.277 5.078 5.078 0 2.8-2.278 5.077-5.078 5.077zm0-9.374a4.3 4.3 0 0 0-4.297 4.296 4.3 4.3 0 0 0 4.297 4.297 4.3 4.3 0 0 0 4.296-4.296 4.3 4.3 0 0 0-4.296-4.297zm6.249 15.624h-3.124a.784.784 0 0 1-.781-.782v-.78c0-.43.351-.782.78-.782h3.125c.43 0 .782.352.782.781v.781c0 .43-.352.782-.782.782zm-3.124-1.563v.781h3.124v-.78h-3.124z" fill="#363F40"/><path d="M14.842 24.435h-3.124a.784.784 0 0 1-.781-.78v-.782c0-.43.351-.781.78-.781h3.125c.43 0 .782.351.782.781v.781c0 .43-.352.781-.782.781zm-3.124-1.562v.781h3.124v-.781h-3.124z" fill="#363F40"/><path d="M14.842 22.873h-3.124a.784.784 0 0 1-.781-.781v-.781c0-.43.351-.782.78-.782h3.125c.43 0 .782.352.782.782v.78c0 .43-.352.782-.782.782zm-3.124-1.563v.782h3.124v-.781h-3.124zm7.031 4.688h-3.125a.783.783 0 0 1-.781-.782v-.78c0-.43.351-.782.781-.782h3.125c.43 0 .78.352.78.781v.781c0 .43-.35.782-.78.782zm-3.125-1.563v.781h3.125v-.78h-3.125z" fill="#363F40"/><path d="M18.749 24.435h-3.125a.784.784 0 0 1-.781-.78v-.782c0-.43.351-.781.781-.781h3.125c.43 0 .78.351.78.781v.781c0 .43-.35.781-.78.781zm-3.125-1.562v.781h3.125v-.781h-3.125z" fill="#363F40"/><path d="M18.749 22.873h-3.125a.784.784 0 0 1-.781-.781v-.781c0-.43.351-.782.781-.782h3.125c.43 0 .78.352.78.782v.78c0 .43-.35.782-.78.782zm-3.125-1.563v.782h3.125v-.781h-3.125z" fill="#363F40"/><path d="M18.749 21.31h-3.125a.783.783 0 0 1-.781-.78v-.782c0-.43.351-.781.781-.781h3.125c.43 0 .78.352.78.781v.781c0 .43-.35.782-.78.782zm-3.125-1.562v.781h3.125v-.78h-3.125z" fill="#363F40"/><path d="M18.749 19.748h-3.125a.783.783 0 0 1-.781-.781v-.781c0-.43.351-.781.781-.781h3.125c.43 0 .78.351.78.78v.782c0 .43-.35.781-.78.781zm-3.125-1.562v.781h3.125v-.781h-3.125zm7.03 7.812H19.53a.784.784 0 0 1-.782-.782v-.78c0-.43.352-.782.782-.782h3.124c.43 0 .782.352.782.781v.781c0 .43-.352.782-.782.782zm-3.124-1.563v.781h3.124v-.78H19.53z" fill="#363F40"/><path d="M22.654 24.435H19.53a.784.784 0 0 1-.782-.78v-.782c0-.43.352-.781.782-.781h3.124c.43 0 .782.351.782.781v.781c0 .43-.352.781-.782.781zm-3.124-1.562v.781h3.124v-.781H19.53z" fill="#363F40"/><path d="M22.654 22.873H19.53a.784.784 0 0 1-.782-.781v-.781c0-.43.352-.782.782-.782h3.124c.43 0 .782.352.782.782v.78c0 .43-.352.782-.782.782zM19.53 21.31v.782h3.124v-.781H19.53z" fill="#363F40"/><path d="M22.654 21.31H19.53a.784.784 0 0 1-.782-.78v-.782c0-.43.352-.781.782-.781h3.124c.43 0 .782.352.782.781v.781c0 .43-.352.782-.782.782zm-3.124-1.562v.781h3.124v-.78H19.53z" fill="#363F40"/><path d="M22.654 19.748H19.53a.784.784 0 0 1-.782-.781v-.781c0-.43.352-.781.782-.781h3.124c.43 0 .782.351.782.78v.782c0 .43-.352.781-.782.781zm-3.124-1.562v.781h3.124v-.781H19.53z" fill="#363F40"/><path d="M22.654 18.186H19.53a.784.784 0 0 1-.782-.782v-.78c0-.43.352-.782.782-.782h3.124c.43 0 .782.352.782.781v.781c0 .43-.352.782-.782.782zm-3.124-1.563v.781h3.124v-.78H19.53z" fill="#363F40"/><path d="M22.654 16.623H19.53a.784.784 0 0 1-.782-.78v-.782c0-.43.352-.781.782-.781h3.124c.43 0 .782.351.782.781v.781c0 .43-.352.781-.782.781zm-3.124-1.562v.781h3.124v-.781H19.53zm3.124-2.344H19.53a.784.784 0 0 1-.782-.78v-.782c0-.43.352-.781.782-.781h3.124c.43 0 .782.351.782.781v.781c0 .43-.352.781-.782.781zm-3.124-1.562v.781h3.124v-.78H19.53zm1.172-4.687h-.782v3.125h.782V6.468zm1.562-2.344h-.781V7.25h.781V4.124zm-1.562.782h-.782v.78h.782v-.78zm1.562 3.124h-.781v.781h.781v-.78z" fill="#363F40"/></svg>