<svg width="15" height="16" viewBox="0 0 15 16" fill="none" xmlns="http://www.w3.org/2000/svg"><path d="M13.844 9.545a.374.374 0 0 0-.373.374v3.319c0 .619-.502 1.12-1.12 1.121H1.867a1.12 1.12 0 0 1-1.12-1.121v-9.74c0-.62.501-1.121 1.12-1.122h3.317a.374.374 0 0 0 0-.747H1.868A1.87 1.87 0 0 0 0 3.498v9.74a1.87 1.87 0 0 0 1.868 1.869H12.35a1.87 1.87 0 0 0 1.868-1.87V9.92a.374.374 0 0 0-.374-.374z" fill="#000"/><path d="M14.07.667a1.68 1.68 0 0 0-2.377 0L5.028 7.335a.374.374 0 0 0-.096.165l-.877 3.166a.374.374 0 0 0 .46.46l3.164-.877a.373.373 0 0 0 .165-.096l6.664-6.669a1.684 1.684 0 0 0 0-2.379L14.07.667zM5.842 7.578l5.454-5.458 1.76 1.76L7.6 9.339l-1.76-1.76zm-.352.706L6.896 9.69l-1.944.539.538-1.945zm8.49-5.328l-.396.396-1.76-1.76.397-.397a.933.933 0 0 1 1.32 0l.44.439a.936.936 0 0 1 0 1.322z" fill="#333"/></svg>