<svg width="20" height="20" viewBox="0 0 20 20" fill="none" xmlns="http://www.w3.org/2000/svg"><g clip-path="url(#a)" fill="#ACACAC"><path d="M18.894 1.978c-.721-.73-1.59-1.115-2.513-1.115h-.044c-.88.012-1.744.386-2.432 1.054l-.007.006-8.934 9.083c-.894.904-.894 2.215 0 3.119.433.438.986.679 1.556.679.578 0 1.134-.241 1.57-.682l6.175-6.308a.781.781 0 1 0-1.117-1.093l-6.172 6.306a.656.656 0 0 1-.456.215c-.154 0-.304-.073-.446-.216-.41-.415-.137-.782.002-.923L15 3.033c.852-.823 1.945-.807 2.785.043.996 1.007.725 2.182.014 2.9a.781.781 0 0 0 1.11 1.099c.686-.693 1.073-1.573 1.091-2.48.02-.948-.373-1.878-1.105-2.617z"/><path d="M16.441 8.503a.781.781 0 0 0-1.104.017l-7.709 7.962c-.698.705-1.58 1.093-2.486 1.093-.906 0-1.765-.385-2.485-1.112-1.684-1.703-1.214-3.704 0-4.931l7.696-7.695A.78.78 0 1 0 9.25 2.732L1.551 10.43l-.003.003C.582 11.407.033 12.637 0 13.895c-.034 1.342.5 2.61 1.545 3.666 1.005 1.016 2.282 1.576 3.595 1.576 1.328 0 2.607-.554 3.6-1.56l7.718-7.97a.78.78 0 0 0-.018-1.104z"/></g><defs><clipPath id="a"><path fill="#fff" d="M0 0h20v20H0z"/></clipPath></defs></svg>