<svg width="30" height="28" viewBox="0 0 30 28" fill="none" xmlns="http://www.w3.org/2000/svg"><path d="M28.57 12.27l-2.454-2.236V2.617a.855.855 0 0 0-.855-.854h-5.909a.855.855 0 0 0-.854.854v.475l-2.965-2.7a1.483 1.483 0 0 0-2.007 0L.488 12.27a1.48 1.48 0 0 0-.386 1.64c.224.578.77.952 1.39.952h2.082v11.902c0 .472.383.855.855.855h7.146a.855.855 0 0 0 .854-.855v-7.227h4.2v7.227c0 .472.383.855.855.855h7.146a.854.854 0 0 0 .854-.855V14.863h2.083a1.48 1.48 0 0 0 1.39-.952 1.48 1.48 0 0 0-.386-1.64zm-3.94.883a.855.855 0 0 0-.855.855v11.903h-5.437v-7.227a.855.855 0 0 0-.854-.855h-5.91a.855.855 0 0 0-.854.855v7.227H5.283V14.008a.855.855 0 0 0-.855-.855h-2.37L14.528 1.79l4.248 3.87a.855.855 0 0 0 1.43-.632V3.472h4.2v6.94c0 .24.101.47.279.631l2.316 2.11H24.63z" fill="#000"/></svg>