<svg width="20" height="20" viewBox="0 0 20 20" fill="none" xmlns="http://www.w3.org/2000/svg"><path d="M19.664 8.446l-1.69-1.54V1.801a.588.588 0 0 0-.588-.588H13.32a.588.588 0 0 0-.588.588v.327L10.691.27a1.02 1.02 0 0 0-1.382 0L.336 8.446A1.02 1.02 0 0 0 .07 9.574c.154.398.53.655.957.655H2.46v8.193c0 .324.263.588.588.588h4.918a.588.588 0 0 0 .589-.588v-4.975h2.89v4.975c0 .324.264.588.588.588h4.919a.588.588 0 0 0 .588-.588v-8.193h1.433c.427 0 .803-.257.957-.655a1.02 1.02 0 0 0-.266-1.128zm-2.712.607a.588.588 0 0 0-.588.588v8.192h-3.742V12.86a.588.588 0 0 0-.588-.588H7.966a.588.588 0 0 0-.588.588v4.974H3.636V9.641a.588.588 0 0 0-.588-.588H1.416L10 1.231l2.923 2.664a.588.588 0 0 0 .985-.435V2.39h2.89v4.776c0 .165.07.323.192.435l1.594 1.452h-1.632z" fill="#000"/></svg>