<svg width="24" height="20" viewBox="0 0 24 20" fill="none" xmlns="http://www.w3.org/2000/svg"><path d="M23.109 8.643L12.799.147a.647.647 0 0 0-.683-.086.645.645 0 0 0-.369.583v4.478c-5.004.182-8.443 1.947-10.233 5.253-1.54 2.851-1.526 6.228-1.511 8.462v.517A.65.65 0 0 0 .649 20a.64.64 0 0 0 .56-.325c3.492-6.157 6.367-6.454 10.533-6.468v4.463c0 .249.144.479.374.584.23.105.492.072.689-.086l10.304-8.525a.65.65 0 0 0 0-1zm-10.07 7.654v-3.736a.653.653 0 0 0-.646-.646c-2.602 0-4.597.072-6.535.976-1.674.78-3.124 2.105-4.554 4.186.057-1.9.306-4.167 1.344-6.085 1.646-3.043 4.832-4.55 9.745-4.593a.648.648 0 0 0 .641-.645V2.013l8.645 7.132-8.64 7.152z" fill="#000"/></svg>