<svg width="18" height="18" viewBox="0 0 18 18" fill="none" xmlns="http://www.w3.org/2000/svg"><path d="M15.188 0h-2.672a2.816 2.816 0 0 0-2.813 2.813v2.671a2.816 2.816 0 0 0 2.813 2.813h2.671A2.816 2.816 0 0 0 18 5.484V2.813A2.816 2.816 0 0 0 15.187 0zm1.406 5.484c0 .776-.631 1.407-1.407 1.407h-2.671a1.408 1.408 0 0 1-1.407-1.407V2.813c0-.776.631-1.407 1.407-1.407h2.671c.776 0 1.407.631 1.407 1.407v2.671zM5.484 0H2.813A2.816 2.816 0 0 0 0 2.813v2.671a2.816 2.816 0 0 0 2.813 2.813h2.671a2.816 2.816 0 0 0 2.813-2.813V2.813A2.816 2.816 0 0 0 5.484 0zm1.407 5.484c0 .776-.631 1.407-1.407 1.407H2.813a1.408 1.408 0 0 1-1.407-1.407V2.813c0-.776.631-1.407 1.407-1.407h2.671c.776 0 1.407.631 1.407 1.407v2.671zM5.484 9.703H2.813A2.816 2.816 0 0 0 0 12.516v2.671A2.816 2.816 0 0 0 2.813 18h2.671a2.816 2.816 0 0 0 2.813-2.813v-2.671a2.816 2.816 0 0 0-2.813-2.813zm1.407 5.485c0 .775-.631 1.406-1.407 1.406H2.813a1.408 1.408 0 0 1-1.407-1.407v-2.671c0-.776.631-1.407 1.407-1.407h2.671c.776 0 1.407.631 1.407 1.407v2.671zm10.406-.704a.703.703 0 0 0-.703.704c0 .775-.631 1.406-1.407 1.406h-2.671a1.408 1.408 0 0 1-1.407-1.407v-2.671c0-.776.631-1.407 1.407-1.407h2.671c.56 0 1.066.332 1.29.844a.703.703 0 0 0 1.288-.563 2.813 2.813 0 0 0-2.578-1.687h-2.671a2.816 2.816 0 0 0-2.813 2.813v2.671A2.816 2.816 0 0 0 12.516 18h2.671A2.816 2.816 0 0 0 18 15.187a.703.703 0 0 0-.703-.703z" fill="#000"/></svg>