<svg width="23" height="16" viewBox="0 0 23 16" fill="none" xmlns="http://www.w3.org/2000/svg"><path d="M22.55 6.356c-.248 0-.449.175-.449.39V8.14c0 .799-.747 1.449-1.666 1.449h-2.56a.486.486 0 0 0-.318.114l-3.104 2.7V9.977c0-.215-.201-.39-.45-.39h-6.43c-.919 0-1.666-.65-1.666-1.45V2.23c0-.799.747-1.449 1.666-1.449h12.863c.919 0 1.666.65 1.666 1.449v1.392c0 .216.201.39.45.39.248 0 .449-.174.449-.39V2.23C23 1 21.85 0 20.435 0H7.572C6.158 0 5.007 1 5.007 2.23v5.018h-3.27C.78 7.248 0 7.926 0 8.76v3.6c0 .834.78 1.511 1.738 1.511h1.374l2.226 1.937a.505.505 0 0 0 .49.085c.168-.061.277-.203.277-.362v-1.66h3.469c.958 0 1.738-.677 1.738-1.51v-1.99h2.243v2.975c0 .157.11.3.277.36a.506.506 0 0 0 .49-.084l3.739-3.252h2.375c1.414 0 2.564-1 2.564-2.23V6.747c0-.216-.201-.39-.45-.39zM10.414 12.36c0 .403-.376.73-.84.73H5.657c-.248 0-.45.175-.45.39v1.108l-1.59-1.384a.486.486 0 0 0-.318-.114h-1.56c-.463 0-.84-.327-.84-.73v-3.6c0-.402.377-.73.84-.73h3.27v.11c0 1.23 1.15 2.23 2.564 2.23h2.841v1.99z" fill="#000"/><path d="M18.383 2.56h-8.76c-.248 0-.449.174-.449.39 0 .216.201.39.45.39h8.76c.247.001.449-.174.449-.39 0-.215-.201-.39-.45-.39zm.45 2.5c0-.216-.201-.39-.45-.39h-8.76c-.248 0-.449.174-.449.39 0 .216.201.39.45.39h8.76c.247 0 .449-.174.449-.39zM9.624 6.779c-.249 0-.45.175-.45.39 0 .216.201.391.45.391h5.053c.249 0 .45-.175.45-.39 0-.216-.201-.391-.45-.391H9.624zM22.55 4.794c-.247 0-.449.175-.449.39 0 .216.202.391.45.391.247 0 .449-.175.449-.39 0-.216-.202-.391-.45-.391z" fill="#000"/></svg>