<svg width="27" height="27" viewBox="0 0 27 27" fill="none" xmlns="http://www.w3.org/2000/svg"><path d="M22.066 0h-3.882a4.091 4.091 0 0 0-4.086 4.086v3.882a4.091 4.091 0 0 0 4.086 4.087h3.882a4.091 4.091 0 0 0 4.087-4.087V4.086A4.091 4.091 0 0 0 22.066 0zm2.044 7.968a2.046 2.046 0 0 1-2.044 2.044h-3.882a2.046 2.046 0 0 1-2.043-2.044V4.086c0-1.126.917-2.043 2.043-2.043h3.882c1.127 0 2.044.917 2.044 2.043v3.882zM7.968 0H4.086A4.091 4.091 0 0 0 0 4.086v3.882a4.091 4.091 0 0 0 4.086 4.087h3.882a4.091 4.091 0 0 0 4.087-4.087V4.086A4.091 4.091 0 0 0 7.968 0zm2.044 7.968a2.045 2.045 0 0 1-2.044 2.044H4.086a2.046 2.046 0 0 1-2.043-2.044V4.086c0-1.126.917-2.043 2.043-2.043h3.882c1.127 0 2.044.917 2.044 2.043v3.882zm-2.044 6.13H4.086A4.091 4.091 0 0 0 0 18.184v3.882a4.091 4.091 0 0 0 4.086 4.087h3.882a4.091 4.091 0 0 0 4.087-4.087v-3.882a4.091 4.091 0 0 0-4.087-4.086zm2.044 7.968a2.046 2.046 0 0 1-2.044 2.044H4.086a2.046 2.046 0 0 1-2.043-2.044v-3.882c0-1.126.917-2.043 2.043-2.043h3.882c1.127 0 2.044.917 2.044 2.043v3.882zm15.119-1.021a1.02 1.02 0 0 0-1.021 1.021 2.046 2.046 0 0 1-2.044 2.044h-3.882a2.046 2.046 0 0 1-2.043-2.044v-3.882c0-1.126.917-2.043 2.043-2.043h3.882c.813 0 1.548.481 1.874 1.226a1.022 1.022 0 0 0 1.872-.819 4.088 4.088 0 0 0-3.746-2.45h-3.882a4.09 4.09 0 0 0-4.086 4.086v3.882a4.09 4.09 0 0 0 4.086 4.087h3.882a4.09 4.09 0 0 0 4.087-4.087c0-.564-.458-1.021-1.022-1.021z" fill="#000"/></svg>