<svg width="34" height="24" viewBox="0 0 34 24" fill="none" xmlns="http://www.w3.org/2000/svg"><path d="M32.765 9.235c-.361 0-.653.255-.653.568v2.022c0 1.16-1.086 2.105-2.421 2.105h-3.72c-.173 0-.34.06-.462.166L21 18.018v-3.52c0-.314-.292-.568-.653-.568h-9.345c-1.335 0-2.42-.944-2.42-2.105V3.24c0-1.16 1.085-2.105 2.42-2.105h18.69c1.335 0 2.42.945 2.42 2.105v2.022c0 .314.293.568.654.568.36 0 .652-.254.652-.568V3.24c0-1.787-1.672-3.24-3.726-3.24H11C8.947 0 7.275 1.453 7.275 3.24v7.291h-4.75c-1.392 0-2.525.985-2.525 2.196v5.23c0 1.21 1.133 2.196 2.525 2.196H4.52l3.235 2.813a.737.737 0 0 0 .712.123c.244-.088.402-.295.402-.525v-2.411h5.04c1.393 0 2.525-.985 2.525-2.196v-2.891h3.26v4.323c0 .23.158.436.402.524a.734.734 0 0 0 .711-.123l5.433-4.724h3.45c2.055 0 3.726-1.454 3.726-3.24V9.803c0-.313-.292-.568-.652-.568zM15.13 17.957c0 .585-.548 1.06-1.22 1.06H8.218c-.361 0-.653.255-.653.568v1.61l-2.312-2.011a.706.706 0 0 0-.462-.167H2.525c-.673 0-1.22-.475-1.22-1.06v-5.23c0-.585.548-1.06 1.22-1.06h4.75v.159c0 1.786 1.672 3.24 3.726 3.24h4.129v2.891z" fill="#000"/><path d="M26.71 3.72H13.982c-.36 0-.652.253-.652.567 0 .313.292.567.652.567H26.71c.36 0 .652-.254.652-.567 0-.313-.292-.568-.652-.568zm.652 3.632c0-.314-.292-.568-.652-.568H13.982c-.36 0-.652.254-.652.568 0 .313.292.567.652.567H26.71c.36 0 .652-.254.652-.567zM13.982 9.85c-.36 0-.652.253-.652.567 0 .313.292.567.652.567h7.343c.36 0 .653-.254.653-.567 0-.314-.292-.568-.653-.568h-7.342zm18.783-2.885c-.36 0-.653.255-.653.568 0 .312.293.567.653.567.36 0 .652-.255.652-.567 0-.313-.293-.568-.652-.568z" fill="#000"/></svg>