<svg width="20" height="20" viewBox="0 0 20 20" fill="none" xmlns="http://www.w3.org/2000/svg"><path d="M18.636 16.364h-3.182a3.64 3.64 0 0 1-3.636-3.636 3.64 3.64 0 0 1 3.636-3.637h3.182a.454.454 0 0 0 .455-.454V7.273c0-.953-.74-1.728-1.674-1.803L14.807.91a1.796 1.796 0 0 0-2.468-.665L3.39 5.455H1.818A1.82 1.82 0 0 0 0 7.273v10.909A1.82 1.82 0 0 0 1.818 20h15.455a1.82 1.82 0 0 0 1.818-1.818v-1.364a.455.455 0 0 0-.455-.454zm-3.265-12.64l.99 1.73h-3.962l2.972-1.73zM5.197 5.455l7.6-4.424a.89.89 0 0 1 1.22.331l.001.002-7.027 4.091H5.197z" fill="#000"/><path d="M18.636 10h-3.182a2.73 2.73 0 0 0-2.727 2.727 2.73 2.73 0 0 0 2.727 2.727h3.182c.752 0 1.364-.611 1.364-1.363v-2.727c0-.752-.612-1.364-1.364-1.364zm-3.181 3.637a.91.91 0 0 1 0-1.818.91.91 0 0 1 0 1.818z" fill="#000"/></svg>