<svg width="23" height="17" viewBox="0 0 23 17" fill="none" xmlns="http://www.w3.org/2000/svg"><path d="M20.292 7.6c-.782-.39-2.25-.395-2.312-.395a.337.337 0 0 0 0 .673c.379 0 1.478.059 2.01.325a.336.336 0 0 0 .301-.603z" fill="#000"/><path d="M21.972 12.398L20.58 12a.141.141 0 0 1-.102-.135V11.4a2.479 2.479 0 0 0 1.08-2.057v-.641l.135-.27c.148-.294.226-.625.226-.956V5.74a.337.337 0 0 0-.337-.337H18.34a2.14 2.14 0 0 0-2.14 2.139v.02c0 .274.066.55.188.795l.173.345v.55c0 .872.43 1.655 1.08 2.126v.487c0 .075 0 .106-.277.185l-.68.194-1.963-.714a.337.337 0 0 0-.092-.258l-.627-.66V9.506a3.953 3.953 0 0 0 1.44-3.045v-.883c.24-.52.36-1.071.36-1.638V.337A.337.337 0 0 0 15.467 0h-5.043a3.222 3.222 0 0 0-3.219 3.219v.72c0 .567.121 1.118.36 1.638v.76c0 1.26.56 2.394 1.441 3.143v1.133l-.627.66a.335.335 0 0 0-.092.257l-2.073.754c-.15.055-.29.128-.416.218l-.326-.162c.969-.422 1.276-1.015 1.29-1.045a.336.336 0 0 0 0-.301c-.242-.486-.272-1.377-.295-2.092-.009-.238-.016-.463-.03-.663-.115-1.616-1.343-2.835-2.858-2.835C2.064 5.404.836 6.623.72 8.24c-.014.2-.022.425-.03.663-.023.715-.053 1.606-.296 2.092a.336.336 0 0 0 0 .301c.015.03.322.621 1.292 1.044l-.904.452A1.41 1.41 0 0 0 0 14.058v2.49a.337.337 0 0 0 .674 0v-2.49a.74.74 0 0 1 .41-.665l1.127-.563.391.372a1.415 1.415 0 0 0 1.954 0l.391-.372.367.184c-.173.277-.27.601-.27.94v2.594a.337.337 0 0 0 .673 0v-2.593c0-.463.292-.88.727-1.038l2.185-.795.91 1.365a.696.696 0 0 0 1.073.106l.556-.555v3.51a.337.337 0 0 0 .673 0v-3.51l.556.555a.695.695 0 0 0 1.073-.106l.91-1.364 2.185.794c.435.158.727.575.727 1.038v2.593a.337.337 0 0 0 .674 0v-2.593a1.78 1.78 0 0 0-.499-1.233l.084-.023c.084-.024.198-.057.313-.114l.86.86v3.103a.337.337 0 0 0 .674 0v-3.103l.855-.854a.816.816 0 0 0 .143.057l1.392.397c.317.091.54.385.54.716v2.787a.337.337 0 0 0 .673 0V13.76a1.425 1.425 0 0 0-1.03-1.363zm-19.81-.596c-.63-.226-.947-.529-1.082-.694.092-.24.152-.516.192-.806.186.445.497.825.89 1.097v.403zm1.93.912a.743.743 0 0 1-1.025 0l-.313-.298a.694.694 0 0 0 .081-.328v-.36a2.48 2.48 0 0 0 1.488.001v.36c0 .117.03.23.082.328l-.314.297zm-.513-1.546a1.827 1.827 0 0 1-1.824-1.825.337.337 0 0 0-.393-.332l.004-.086c.007-.232.014-.45.028-.639a2.502 2.502 0 0 1 .68-1.57c.4-.412.935-.639 1.505-.639.57 0 1.105.227 1.505.638.396.408.638.966.68 1.571.014.188.021.407.03.638v.06c-.366-.564-.932-.98-1.663-1.216-.676-.217-1.257-.203-1.282-.203a.337.337 0 0 0-.233.103l-.608.63a.337.337 0 0 0 .485.469L3 8.242c.436.02 1.837.184 2.382 1.384a1.82 1.82 0 0 1-1.802 1.542zm1.418.635v-.402c.391-.27.703-.65.89-1.098.04.29.1.565.19.805-.133.164-.451.469-1.08.695zm3.242-5.465v-.836a.34.34 0 0 0-.034-.147 3.229 3.229 0 0 1-.327-1.416v-.72A2.548 2.548 0 0 1 10.423.674h4.707v3.265c0 .49-.11.967-.327 1.416a.338.338 0 0 0-.034.147v.959a3.236 3.236 0 0 1-1.291 2.602l-.006.004a3.239 3.239 0 0 1-2.186.652c-1.709-.11-3.047-1.596-3.047-3.381zm1.897 6.779a.022.022 0 0 1-.02.006.021.021 0 0 1-.016-.01l-1.048-1.572.338-.354 1.589 1.087-.843.843zm1.369-1.3L9.68 10.57v-.63a3.796 3.796 0 0 0 1.828.46 3.9 3.9 0 0 0 1.82-.446v.616l-1.823 1.247zm1.404 1.296a.022.022 0 0 1-.017.01c-.011.002-.016-.004-.02-.006l-.842-.843 1.59-1.087.337.354-1.048 1.572zm6.152-.284l-.765-.765a.92.92 0 0 0 .02-.2v-.142a2.35 2.35 0 0 0 .746.119c.255 0 .505-.039.743-.112v.135a.81.81 0 0 0 .024.197l-.768.768zm1.27-2.177c-.357.347-.829.53-1.327.515-.975-.03-1.768-.888-1.768-1.914v-.63a.336.336 0 0 0-.035-.15l-.208-.417a1.109 1.109 0 0 1-.117-.494v-.02c0-.807.657-1.465 1.465-1.465h2.905v1.4c0 .226-.054.452-.155.655l-.17.34a.338.338 0 0 0-.035.15v.72c0 .499-.198.964-.555 1.31z" fill="#000"/><path d="M21.222 14.05a.337.337 0 0 0-.337.336v2.161a.337.337 0 0 0 .674 0v-2.16a.337.337 0 0 0-.337-.338zm-19.444.444a.337.337 0 0 0-.337.337v1.716a.337.337 0 0 0 .674 0v-1.716a.337.337 0 0 0-.337-.337zM14.264 4.061c-1.274-1.274-3.94-1.03-5.028-.866a.692.692 0 0 0-.59.689v.776a.337.337 0 0 0 .673 0v-.776c0-.012.008-.022.018-.023a10.62 10.62 0 0 1 2.189-.107c1.05.07 1.812.334 2.262.784a.337.337 0 0 0 .476-.477zM7.542 14.77a.337.337 0 0 0-.337.337v1.44a.337.337 0 0 0 .673 0v-1.44a.337.337 0 0 0-.337-.337zm7.925 0a.337.337 0 0 0-.337.337v1.44a.337.337 0 0 0 .674 0v-1.44a.337.337 0 0 0-.337-.337z" fill="#000"/></svg>