<svg width="34" height="25" viewBox="0 0 34 25" fill="none" xmlns="http://www.w3.org/2000/svg"><path d="M29.483 11.043c-1.137-.569-3.27-.575-3.36-.575a.49.49 0 0 0 0 .979c.55 0 2.148.085 2.922.472a.487.487 0 0 0 .657-.22.49.49 0 0 0-.219-.656z" fill="#000"/><path d="M31.923 18.013l-2.022-.578a.205.205 0 0 1-.148-.196v-.675a3.601 3.601 0 0 0 1.57-2.99v-.93l.196-.392a3.12 3.12 0 0 0 .327-1.39V8.34a.49.49 0 0 0-.49-.49h-4.71a3.11 3.11 0 0 0-3.106 3.107v.03c0 .398.094.798.273 1.155l.25.501v.8c0 1.267.625 2.404 1.57 3.088v.708c0 .109 0 .154-.403.27l-.987.281-2.853-1.037a.489.489 0 0 0-.133-.375l-.912-.958v-1.61a5.744 5.744 0 0 0 2.093-4.424V8.103a5.662 5.662 0 0 0 .523-2.38V.49a.49.49 0 0 0-.49-.49h-7.326a4.682 4.682 0 0 0-4.677 4.676v1.047c0 .824.177 1.624.524 2.38v1.105c0 1.83.814 3.478 2.094 4.566v1.646l-.912.958a.487.487 0 0 0-.133.375l-3.012 1.095c-.218.08-.421.186-.605.317l-.474-.236c1.408-.613 1.854-1.475 1.875-1.518.07-.138.07-.3 0-.438-.353-.705-.395-2-.43-3.039a24.906 24.906 0 0 0-.043-.964C9.185 9.623 7.401 7.852 5.2 7.852c-2.2 0-3.985 1.77-4.152 4.118-.021.291-.032.618-.044.964-.034 1.04-.077 2.333-.43 3.04a.487.487 0 0 0 0 .437c.022.043.467.903 1.877 1.516l-1.313.657A2.05 2.05 0 0 0 0 20.426v3.616a.49.49 0 0 0 .979 0v-3.616c0-.412.23-.783.597-.967l1.636-.818.569.54a2.056 2.056 0 0 0 2.838 0l.569-.54.533.267a2.578 2.578 0 0 0-.393 1.367v3.768a.49.49 0 0 0 .979 0v-3.768a1.61 1.61 0 0 1 1.056-1.508l3.175-1.154 1.322 1.983a1.01 1.01 0 0 0 1.559.154l.807-.806v5.098a.49.49 0 0 0 .979 0v-5.099l.807.807a1.01 1.01 0 0 0 .816.292c.303-.03.574-.193.743-.446l1.321-1.983 3.176 1.155a1.61 1.61 0 0 1 1.056 1.508v3.768a.49.49 0 0 0 .979 0v-3.768c0-.681-.27-1.32-.724-1.791l.12-.035c.123-.034.29-.083.456-.164l1.25 1.25v4.508a.49.49 0 0 0 .98 0v-4.51l1.24-1.24c.066.033.136.061.209.082l2.022.578c.461.132.784.56.784 1.04v4.048a.49.49 0 0 0 .979 0v-4.049a2.071 2.071 0 0 0-1.496-1.98zm-28.782-.865c-.916-.33-1.375-.769-1.571-1.008.133-.35.22-.75.278-1.173.27.648.722 1.2 1.293 1.594v.587zm2.804 1.325a1.08 1.08 0 0 1-1.49 0l-.454-.433c.077-.143.119-.306.119-.477v-.522a3.652 3.652 0 0 0 2.162 0v.522c0 .171.042.334.118.479l-.455.431zM5.2 16.226a2.654 2.654 0 0 1-2.652-2.65.49.49 0 0 0-.57-.483l.005-.126c.011-.337.022-.655.041-.928.063-.88.414-1.69.99-2.282A3.024 3.024 0 0 1 5.2 8.83c.828 0 1.605.33 2.185.927.576.592.928 1.403.99 2.282.02.273.03.591.041.927l.003.088c-.533-.82-1.355-1.426-2.418-1.767a6.156 6.156 0 0 0-1.862-.295.489.489 0 0 0-.339.15l-.883.915a.49.49 0 0 0 .704.68l.735-.762c.633.03 2.67.267 3.462 2.011a2.644 2.644 0 0 1-2.618 2.24zm2.059.923v-.584a3.625 3.625 0 0 0 1.292-1.596c.059.422.146.821.279 1.17-.195.238-.657.681-1.571 1.01zm4.71-7.94V7.992a.492.492 0 0 0-.049-.212 4.69 4.69 0 0 1-.474-2.058V4.676A3.702 3.702 0 0 1 15.144.98h6.838v4.744c0 .713-.16 1.405-.474 2.058a.49.49 0 0 0-.05.212v1.394a4.702 4.702 0 0 1-1.5 3.462c-.12.113-.246.22-.375.319l-.009.006a4.705 4.705 0 0 1-3.177.947c-2.482-.16-4.427-2.319-4.427-4.913zm2.756 9.849c-.003.003-.01.01-.027.01a.031.031 0 0 1-.025-.016l-1.522-2.283.49-.515 2.31 1.579-1.226 1.225zm1.99-1.89l-2.652-1.811v-.914a5.515 5.515 0 0 0 2.656.668c.936 0 1.836-.224 2.646-.648v.894l-2.65 1.812zm2.04 1.884a.033.033 0 0 1-.025.016c-.016.002-.024-.007-.028-.01l-1.225-1.225 2.31-1.58.49.516-1.522 2.284zm8.938-.413l-1.11-1.11c.019-.089.03-.185.03-.29v-.208a3.423 3.423 0 0 0 1.081.173c.372 0 .735-.056 1.08-.163v.197c0 .098.012.193.035.285l-1.116 1.116zm1.846-3.162a2.633 2.633 0 0 1-1.928.747c-1.416-.042-2.57-1.29-2.57-2.78v-.916a.488.488 0 0 0-.05-.218l-.303-.605a1.61 1.61 0 0 1-.169-.718v-.03a2.13 2.13 0 0 1 2.128-2.127h4.22v2.033c0 .329-.077.658-.224.952l-.247.494a.489.489 0 0 0-.052.219v1.047a2.63 2.63 0 0 1-.805 1.902z" fill="#000"/><path d="M30.834 20.413a.49.49 0 0 0-.49.49v3.14a.49.49 0 0 0 .98 0v-3.14a.49.49 0 0 0-.49-.49zm-28.251.647a.49.49 0 0 0-.49.489v2.493a.49.49 0 0 0 .98 0V21.55a.49.49 0 0 0-.49-.49zM20.725 5.9C18.873 4.05 15 4.405 13.42 4.643a1.005 1.005 0 0 0-.858 1.001v1.128a.49.49 0 0 0 .979 0v-1.13c0-.017.01-.03.025-.033.631-.095 1.883-.242 3.18-.155 1.527.102 2.633.485 3.287 1.139a.49.49 0 1 0 .692-.692zm-9.768 15.56a.49.49 0 0 0-.49.49v2.093a.49.49 0 0 0 .98 0v-2.094a.49.49 0 0 0-.49-.49zm11.516 0a.49.49 0 0 0-.49.49v2.093a.49.49 0 0 0 .98 0v-2.094a.49.49 0 0 0-.49-.49z" fill="#000"/></svg>