<svg width="20" height="20" viewBox="0 0 20 20" fill="none" xmlns="http://www.w3.org/2000/svg"><path d="M7.288 9.137a.845.845 0 0 0 .853-.836.845.845 0 0 0-.853-.836.845.845 0 0 0-.853.836c0 .462.382.836.853.836zm5.42 3.393a.845.845 0 0 0 .853-.835.845.845 0 0 0-.853-.836.845.845 0 0 0-.853.836c0 .461.382.836.853.836z" fill="#000"/><path d="M19.743 11.104l-.31-.413a1.283 1.283 0 0 1-.012-1.52l.301-.419a1.29 1.29 0 0 0-.46-1.901l-.46-.242a1.291 1.291 0 0 1-.682-1.365l.088-.504c.134-.77-.456-1.483-1.255-1.516l-.523-.02a1.328 1.328 0 0 1-1.22-.94l-.147-.491C14.84 1.019 13.996.63 13.26.941l-.48.2a1.344 1.344 0 0 1-1.515-.327l-.347-.381a1.344 1.344 0 0 0-1.99.016l-.344.386a1.348 1.348 0 0 1-1.51.348L6.59.986c-.74-.299-1.577.107-1.79.86l-.138.497c-.15.54-.636.926-1.204.954l-.523.03c-.8.044-1.376.766-1.23 1.536l.096.504a1.29 1.29 0 0 1-.66 1.373l-.456.25a1.286 1.286 0 0 0-.427 1.906l.31.413c.334.451.342 1.062.012 1.52l-.301.419a1.29 1.29 0 0 0 .46 1.901l.46.242c.502.262.778.812.682 1.365l-.088.504c-.134.77.456 1.484 1.255 1.516l.522.02a1.328 1.328 0 0 1 1.222.94l.146.491c.222.754 1.067 1.143 1.803.832l.48-.2a1.344 1.344 0 0 1 1.515.327l.347.381a1.344 1.344 0 0 0 1.99-.016l.344-.385a1.348 1.348 0 0 1 1.51-.349l.485.197c.74.299 1.577-.107 1.79-.86l.138-.497c.15-.54.636-.926 1.205-.954l.522-.03c.8-.044 1.376-.765 1.23-1.536l-.096-.504a1.29 1.29 0 0 1 .66-1.373l.456-.25c.699-.377.9-1.27.427-1.906zM5.226 8.301c0-1.114.92-2.016 2.057-2.016 1.138 0 2.058.902 2.058 2.016 0 1.115-.92 2.017-2.058 2.017-1.137 0-2.057-.906-2.057-2.017zm2.455 5.2a.51.51 0 0 1-.707.066.486.486 0 0 1-.067-.692l5.4-6.373a.51.51 0 0 1 .707-.065.486.486 0 0 1 .066.692l-5.4 6.373zm5.027.21c-1.138 0-2.058-.902-2.058-2.016 0-1.115.92-2.017 2.058-2.017s2.058.902 2.058 2.017c0 1.114-.92 2.016-2.058 2.016z" fill="#000"/></svg>