<svg width="13" height="13" viewBox="0 0 13 13" fill="none" xmlns="http://www.w3.org/2000/svg"><path d="M8.755 1.327H7.163V3.98h1.592V1.327z" fill="#333"/><path d="M10.456 0H0v13h12.735V2.279L10.455 0zM2.653.53h6.898v4.246H2.653V.53zm7.694 11.94H2.122V6.897h8.225v5.571z" fill="#333"/><path d="M3.449 8.49h1.857c.146 0 .265-.12.265-.265a.266.266 0 0 0-.265-.266H3.449a.266.266 0 0 0-.265.266c0 .145.119.265.265.265zm0 1.061h2.653c.146 0 .265-.12.265-.265a.266.266 0 0 0-.265-.266H3.449a.266.266 0 0 0-.265.266c0 .146.119.265.265.265zm3.449 0c.072 0 .138-.03.188-.077a.279.279 0 0 0 .077-.188.279.279 0 0 0-.077-.189.274.274 0 0 0-.374 0 .265.265 0 0 0 .186.454z" fill="#333"/></svg>