<svg width="29" height="30" viewBox="0 0 29 30" fill="none" xmlns="http://www.w3.org/2000/svg"><path d="M20 23.333H0V8.095h18.095v.953H.952V22.38H20v.952zm8.571 0h-1.905v-.952h.953V9.048h-.953v-.953h1.905v15.238zm-4.761 5.715h-.953V30h.953v-.952zm1.428-10.477h-3.81v.953h3.81v-.953zm0 5.715h-3.81v.952h3.81v-.952zm-1.428-3.81h-.953v.953h.953v-.953zm0 1.905h-.953v.952h.953v-.952z" fill="#363F40"/><path d="M23.334 29.72l-2.381-2.382V4.286h-.477a.478.478 0 0 0-.476.476v6.19h-.952v-6.19c0-.786.643-1.429 1.428-1.429h5.239v24.005l-2.381 2.381zm-1.429-2.772l1.429 1.428 1.428-1.428V4.286h-2.857v22.662zm-16.667-7.9a1.904 1.904 0 0 1-1.905-1.905h.953c0 .524.428.952.952.952a.955.955 0 0 0 .953-.952c0-.31-.677-.786-1.148-.995-.286-.129-1.71-.82-1.71-1.862a1.904 1.904 0 1 1 3.81 0h-.952a.955.955 0 0 0-.953-.953.955.955 0 0 0-.952.953c0 .31.676.786 1.148.995.285.129 1.709.819 1.709 1.862a1.904 1.904 0 0 1-1.905 1.905z" fill="#363F40"/><path d="M5.715 11.429h-.953v1.428h.953V11.43zm0 7.142h-.953V20h.953v-1.429zM14.286 10H9.524v.952h4.762V10zM20 12.857H9.524v.953H20v-.953zm0 1.905H9.524v.952H20v-.952zm0 1.905H9.524v.952H20v-.952zm-8.571 3.809H9.524v.953h1.905v-.953zm4.761 0h-3.81v.953h3.81v-.953zM2.857 10h-.952v.952h.952V10zm0 10.476h-.952v.953h.952v-.953zM18.095 6.19H0v.953h18.095V6.19zm10.476 0h-1.905v.953h1.905V6.19zM18.095 4.286H0v.952h18.095v-.952zm10.476 0h-1.905v.952h1.905v-.952zm-3.809-.476h-.953V.952h-.952V3.81h-.952V0h2.857v3.81z" fill="#363F40"/></svg>