<svg width="107" height="30" viewBox="0 0 107 30" fill="none" xmlns="http://www.w3.org/2000/svg"><path d="M7.76 5.934H4.598v8.39H3.176v-8.39H0v-.98h7.76v.98zm8.92 1.546v4.443c0 .51-.125.938-.373 1.297-.249.359-.58.62-1.008.786a6.4 6.4 0 0 1-1.257.36 8.15 8.15 0 0 1-1.339.096c-2.623 0-3.935-.842-3.935-2.54V7.494c0-1.794 1.312-2.69 3.935-2.69 2.651 0 3.977.896 3.977 2.676zm-1.367 4.429V7.452c0-1.16-.87-1.739-2.596-1.739-.373 0-.69.028-.967.069a2.92 2.92 0 0 0-.814.248 1.438 1.438 0 0 0-.608.539c-.138.234-.207.524-.207.883v4.457c0 1.076.87 1.614 2.61 1.614 1.726.014 2.582-.524 2.582-1.614zm9.9-5.106V8.75c0 .8-.318 1.366-.94 1.697-.62.332-1.504.497-2.636.497h-1.409v3.38H18.82V4.955h3.065c.387 0 .718.014.994.028.276.013.58.069.884.138.317.069.566.18.746.303.193.124.345.304.483.538.165.235.22.511.22.842zM23.846 8.68V6.969c0-.262-.07-.47-.207-.649a1.13 1.13 0 0 0-.58-.359 3.392 3.392 0 0 0-.635-.124 7.399 7.399 0 0 0-.636-.027h-1.574v4.236h1.602c.552 0 1.036-.096 1.422-.317.415-.18.608-.538.608-1.049zm9.831 5.644h-7.222v-.98l5.524-7.41h-5.372v-.98h7v.98l-5.522 7.41h5.606v.98h-.014zm9.776 0h-1.464l-1.063-2.843h-4.018l-1.05 2.843h-1.38l3.728-9.37h1.615l3.632 9.37zm-2.872-3.809L38.993 6.28h-.124l-1.588 4.236h3.3zm5.702 3.809h-1.408v-9.37h1.408v9.37zm6.338 0h-1.823l-4.473-4.982 4.197-4.388h1.685l-4.225 4.333 4.639 5.037zm9.058 0h-1.464l-1.063-2.843h-4.018l-1.05 2.843h-1.38l3.728-9.37h1.615l3.632 9.37zm-2.872-3.809L57.219 6.28h-.124l-1.588 4.236h3.3z" fill="#333"/><path d="M70.212 14.324h-7.746v-1.366l4.888-6.403h-4.736v-1.6h7.511v1.351l-4.888 6.403h4.971v1.615zm8.851 0h-7.746v-1.366l4.888-6.403h-4.736v-1.6h7.51v1.351l-4.887 6.403h4.97v1.615z" fill="#FFB800"/><path d="M51.296 21.596c-.18.345-1.505 2.318-2.43 3.077-.014.014-.028.042-.056.056-.138.082-.304.207-.456.262-.096.041-.179.027-.29.014-.055.013-.124-.014-.179-.07l-.014-.013-.041-.055c-.166-.221-.18-.263-.373-.456-.262-.262-.014-.69-.014-.717.083-.221 3.024-6.652 3.01-6.638-.055.014.304-.731.456-.87.055-.04.097-.04.138-.027.055-.014.138 0 .18.055.11.152.22.304.317.456a.506.506 0 0 1 .11.262.747.747 0 0 1-.027.386c-.11.262-1.906 3.933-2.044 4.181a5.89 5.89 0 0 0-.455.939 17.001 17.001 0 0 1-.58 1.67c0 .013.014.041.014.055.069.165 2.94-2.926 2.734-2.567z" fill="#333"/><path d="M54.03 23.224a2.542 2.542 0 0 1-.663.911c-.428.414-1.146.98-1.685.952-.055.056-1.229-.414-1.326-1.062-.096-.676.332-1.463.594-2.07.207-.483.428-.952.69-1.408.166-.29.332-.759.608-.952.304-.22.635 0 .912.221.055.138.096.262.11.4.014.042.055.11.097.07.11-.028.22-.056.303-.042.07.027.139.027.221.055.18.069.346.235.428.455.014.014.07.842.028 1.187-.028.166-.138.69-.028.663.415-.11.829-.276 1.23-.442.027.014.027.055-.015.097-.372.469-.91.869-1.505.965zm-.663-.013c-.014 0-.083-.055-.097-.055-.704-.249-1.022-.87-.967-1.574a4.915 4.915 0 0 0-.635 1.187c-.11.304-.386.966-.165 1.187.013.014.013.027.041.041.18.249.4.483.746.373.497-.18.828-.621 1.146-1.035.014-.041-.014-.11-.07-.124zm-.346-2.07c-.207.469-.303 1.02.07 1.407.082.097.22.194.345.166.18-.041.207-.248.22-.4 0-.014.042-.456.056-.663.055-.414-.332-1.352-.69-.51z" fill="#333"/><path d="M59.69 21.679c-.372 1.007-.58 1.587-1.007 2.567-.346.814-.705 1.67-1.285 2.332-.29.524-.828 1.27-1.353 1.09-.939-.304-1.215-1.339-1.546-2.139-.042-.124.096-.248.207-.207l.193.055c.18.207.29.456.414.69.097.18.166.456.332.58.317.22.525-.304.621-.538a18.587 18.587 0 0 0 1.947-3.795c-.594.51-1.56 1.449-1.988 1.904-.028.028-.055.055-.097.055-.014.028-.055.028-.096.028-.18.014-.36-.18-.484-.304-.193-.193-.51-.58-.414-.938.193-.621.497-1.2.787-1.794.193-.386.4-.842.677-1.228.58-.359 1.297-.566 1.988-.483l.014.014.138.027.055.028c.18.152.304.345.428.538.083.18.152.345.235.51-.345-.124-.87-.745-1.27-.593-.014 0-.028 0-.042.014-.193.097-.262.345-.345.538l-.055.097a16.674 16.674 0 0 0-1.188 2.318c-.041.097-.083.18-.11.276.22-.18.497-.442.607-.538.138-.124.94-.87 1.409-1.311.096-.248.234-.51.428-.621.262-.138.455.317.663.428.055.014.082.069.082.124.083.097.097.18.056.276zm1.285 3.063c-.138.083-.304.207-.456.263-.11.041-.193.027-.29.013a.18.18 0 0 1-.18-.069l-.013-.013c-.014-.014-.042-.028-.042-.056-.18-.22-.18-.262-.386-.455-.263-.262-.014-.69-.014-.718.083-.22 1.477-3.215 1.463-3.201-.055.014.304-.745.456-.87a.132.132 0 0 1 .138-.027.19.19 0 0 1 .18.055c.096.138.22.304.303.456.07.069.111.151.111.262a.74.74 0 0 1-.014.386c-.096.262-.345.497-.497.745-.18.304-.331.607-.456.939a21.573 21.573 0 0 1-.58 1.67c0 .013.014.04.014.055.097.179 2.969-2.912 2.762-2.553-.18.345-1.505 2.318-2.43 3.077-.014 0-.042.014-.07.041zm1.2-5.81c-.096-.4.111-.979.305-1.31.055-.083.124-.083.18-.055 0-.083.055-.166.151-.125.29.125.704.428.663.828-.014.152-.11.263-.221.346-.193.151-.331.262-.456.482-.207.318-.552.18-.621-.165z" fill="#333"/><path d="M65.31 22.452c.097.524.014.993-.18 1.449-.248.855-1.283 1.242-2.112 1.104-.98-.166-1.256-1.146-.69-1.905.4-.552.966-1.007 1.588-1.366-.207-.786-.055-1.614.442-2.166l.193-.332c.166-.248.386-.58.704-.62 0-.014.014 0 .014 0 .014-.014.041-.014.069-.014.442.069.58.524.635.91v.028c.028.055.014.138-.041.193-.014.055-.028.097-.083.124-.387.263-.773.566-.94 1.022 0 .055.015.11.028.179 0 .097.014.207.042.303.317.014 1.187.042 1.27.125-.22.014-.925.11-1.132.207-.097.041-.055.138 0 .18.083.192.152.386.193.579zm-1.118.013c0-.013 0-.013-.014-.027a.634.634 0 0 0-.096-.22c-.028-.056-.097-.056-.139-.042-.027 0-.055 0-.082.014-.511.317-1.505 1.02-1.243 1.752.096.29.51.428.856.386.304-.013.621-.11.787-.303.47-.47.18-1.063-.07-1.56z" fill="#333"/><path d="M69.687 21.596c-.18.345-1.49 2.319-2.43 3.077-.014.014-.027.042-.055.056-.138.082-.304.207-.456.262-.11.041-.193.027-.29.014a.19.19 0 0 1-.18-.07l-.013-.013c-.014-.014-.041-.028-.041-.055-.18-.221-.18-.263-.387-.456-.262-.262-.014-.69-.028-.717.056-.138 1.353-2.995 2.237-4.913h-1.27c-.221 0-.221-.331 0-.331h1.422c.373-.828.635-1.394.621-1.394-.055.014.304-.731.456-.87.055-.04.097-.04.138-.027.055-.014.138 0 .18.055.096.152.22.304.317.456.055.069.11.151.11.262a.74.74 0 0 1-.013.386l-.539 1.132h1.92c.207 0 .207.331 0 .331H69.3a126.863 126.863 0 0 1-1.353 2.719 5.89 5.89 0 0 0-.456.938 21.82 21.82 0 0 1-.594 1.67c0 .013.014.041.028.055.11.165 2.968-2.926 2.761-2.567z" fill="#333"/><path d="M69.756 24.742c-.138.083-.303.207-.455.263-.11.041-.194.027-.29.013a.18.18 0 0 1-.18-.069l-.014-.013c-.013-.014-.041-.028-.041-.056-.18-.22-.18-.262-.387-.455-.262-.262-.013-.69-.013-.718.082-.22 1.477-3.215 1.463-3.201-.055.014.304-.745.456-.87a.132.132 0 0 1 .138-.027.19.19 0 0 1 .18.055c.096.138.22.304.303.456.07.069.11.151.11.262a.739.739 0 0 1-.013.386c-.097.262-.345.497-.497.745-.18.304-.332.607-.456.939a21.616 21.616 0 0 1-.58 1.67c0 .013.014.04.014.055.097.179 2.969-2.912 2.761-2.553-.179.345-1.504 2.318-2.43 3.077-.013 0-.041.014-.069.041zm1.202-5.81c-.097-.4.11-.979.303-1.31.056-.083.125-.083.18-.055 0-.083.055-.166.152-.125.29.125.704.428.662.828-.013.152-.11.263-.22.346-.194.151-.332.262-.456.482-.207.318-.552.18-.621-.165z" fill="#333"/><path d="M75.763 22.369c-.539.497-1.105.952-1.685 1.38-.414.303-.966.87-1.505.91-.262.014-.442-.04-.566-.179-1.92-1.463.262-3.601 1.408-4.912l.014-.014.097-.11a.15.15 0 0 1 .18-.028c.055-.042.138-.042.206.014.208.179.415.345.622.538.055.027.11.069.152.11.069-.124.138-.248.234-.359.11-.138.277-.22.442-.124.138.083.221.304.125.456a2.42 2.42 0 0 0-.442.98.262.262 0 0 1-.221.22c-.207.11-.511.028-.511-.262.028-.704-.621-.276-.856.014a3.01 3.01 0 0 0-.36.607c-.192.386-.455.98-.538 1.463 0 .165.014.345.097.497.055.165.18.22.304.206.47.014 1.532-.745 1.56-.759.345-.206.663-.413.98-.648.235-.083.36-.11.263 0z" fill="#333"/><path d="M78.096 22.452c.097.524.014.993-.18 1.449-.248.855-1.283 1.242-2.112 1.104-.98-.166-1.256-1.146-.69-1.905.4-.552.966-1.007 1.588-1.366-.207-.786-.056-1.614.441-2.166l.194-.332c.165-.248.386-.58.704-.62 0-.014.014 0 .014 0 .014-.014.041-.014.069-.014.442.069.58.524.635.91v.028c.028.055.014.138-.041.193-.014.055-.028.097-.083.124-.387.263-.774.566-.94 1.022 0 .055.015.11.028.179 0 .097.014.207.042.303.317.014 1.187.042 1.27.125-.22.014-.925.11-1.132.207-.097.041-.055.138 0 .18.083.192.152.386.193.579zm-1.104.013c0-.013 0-.013-.014-.027a.636.636 0 0 0-.097-.22c-.028-.056-.097-.056-.138-.042-.028 0-.055 0-.083.014-.51.317-1.505 1.02-1.242 1.752.096.29.51.428.856.386.303-.013.62-.11.787-.303.455-.47.165-1.063-.07-1.56z" fill="#333"/><path d="M106.25 15.124H89.225L80.526 30h17.04l8.684-14.876z" fill="url(#a)"/><path d="M106.25 15.124L97.537 30 80.527 0h17.148l8.575 15.124z" fill="#FFB800"/><defs><linearGradient id="a" x1="90.2" y1="27.894" x2="100.801" y2="10.176" gradientUnits="userSpaceOnUse"><stop stop-color="#FFB800"/><stop offset=".617" stop-color="#CA7334"/></linearGradient></defs></svg>