<svg width="217" height="61" viewBox="0 0 217 61" fill="none" xmlns="http://www.w3.org/2000/svg"><path d="M15.778 12.065H9.35v17.06H6.457v-17.06H0v-1.992h15.778v1.992zm18.137 3.143v9.035c0 1.038-.252 1.908-.758 2.637a4.316 4.316 0 0 1-2.05 1.6c-.87.336-1.712.589-2.554.73-.842.14-1.74.196-2.724.196-5.334 0-8.001-1.712-8.001-5.163v-9.007c0-3.648 2.667-5.472 8.002-5.472 5.39 0 8.085 1.824 8.085 5.444zm-2.78 9.007v-9.063c0-2.357-1.768-3.536-5.277-3.536-.759 0-1.404.056-1.966.14a5.941 5.941 0 0 0-1.656.506A2.924 2.924 0 0 0 21 13.356c-.28.477-.42 1.066-.42 1.796v9.063c0 2.188 1.768 3.283 5.306 3.283 3.51.028 5.25-1.067 5.25-3.283zm20.131-10.382v3.956c0 1.628-.646 2.778-1.91 3.452-1.263.673-3.06 1.01-5.362 1.01h-2.863v6.874h-2.864V10.073H44.5c.786 0 1.46.028 2.021.056.562.028 1.18.14 1.797.28.646.141 1.151.366 1.516.618.393.253.702.617.983 1.094.337.477.449 1.039.449 1.712zm-2.78 3.816v-3.48c0-.532-.14-.953-.42-1.318-.281-.337-.674-.59-1.18-.73a6.899 6.899 0 0 0-1.291-.252 15.03 15.03 0 0 0-1.292-.056h-3.2v8.614h3.256c1.123 0 2.106-.197 2.892-.645.843-.365 1.236-1.095 1.236-2.133zm19.99 11.476H53.793v-1.992l11.23-15.068H54.102v-1.992h14.234v1.992l-11.23 15.068h11.398v1.992h-.028zm19.878 0h-2.976l-2.162-5.78h-8.17l-2.134 5.78h-2.807l7.58-19.052h3.285l7.384 19.052zm-5.84-7.744l-3.229-8.614h-.252l-3.229 8.614h6.71zm11.596 7.744h-2.864V10.073h2.863v19.052zm12.886 0h-3.706l-9.096-10.13 8.535-8.922h3.425l-8.591 8.81 9.433 10.242zm18.418 0h-2.976l-2.162-5.78h-8.17l-2.134 5.78h-2.808l7.581-19.052h3.285l7.384 19.052zm-5.84-7.744l-3.229-8.614h-.252l-3.229 8.614h6.71z" fill="#333"/><path d="M142.764 29.125h-15.75v-2.778l9.939-13.02h-9.63v-3.254h15.273v2.75l-9.939 13.02h10.107v3.282zm17.997 0H145.01v-2.778l9.939-13.02h-9.63v-3.254h15.273v2.75l-9.938 13.02h10.107v3.282z" fill="#FFB800"/><path d="M104.301 43.912c-.365.702-3.06 4.714-4.941 6.257-.028.028-.056.084-.113.112-.28.169-.617.421-.926.534-.197.084-.365.056-.59.028-.112.028-.252-.028-.365-.14l-.028-.029-.084-.112c-.337-.449-.365-.533-.758-.926-.533-.533-.028-1.403-.028-1.459.168-.449 6.148-13.524 6.12-13.496-.112.028.618-1.487.927-1.768.112-.084.196-.084.281-.056.112-.028.28 0 .365.112.224.309.449.617.645.926.113.14.197.309.225.533.056.253.028.505-.056.786-.225.533-3.875 7.997-4.155 8.502a11.994 11.994 0 0 0-.927 1.908 34.61 34.61 0 0 1-1.18 3.395c0 .028.029.084.029.112.14.337 5.98-5.949 5.559-5.219z" fill="#333"/><path d="M109.86 47.223a5.166 5.166 0 0 1-1.348 1.852c-.87.842-2.33 1.992-3.425 1.936-.112.112-2.499-.842-2.695-2.16-.197-1.376.673-2.975 1.207-4.21.421-.982.87-1.936 1.404-2.861.337-.59.673-1.544 1.235-1.937.618-.449 1.291 0 1.853.45.112.28.197.532.225.813.028.084.112.224.196.14.225-.056.449-.112.618-.084.14.056.281.056.449.112.365.14.702.477.87.926.028.028.141 1.712.056 2.413-.056.337-.28 1.403-.056 1.347.843-.224 1.685-.56 2.499-.898.056.028.056.113-.028.197-.758.954-1.853 1.767-3.06 1.964zm-1.348-.028c-.028 0-.168-.112-.196-.112-1.432-.505-2.078-1.768-1.966-3.2-.533.758-.982 1.544-1.291 2.414-.225.617-.786 1.964-.337 2.413.028.028.028.056.084.084.365.505.814.982 1.516.758 1.011-.365 1.685-1.263 2.331-2.105.028-.084-.029-.224-.141-.252zm-.702-4.209c-.421.954-.617 2.076.141 2.862.168.196.449.393.702.337.364-.084.421-.505.449-.814 0-.028.084-.926.112-1.347.112-.842-.674-2.75-1.404-1.038z" fill="#333"/><path d="M121.371 44.08c-.758 2.049-1.179 3.227-2.05 5.22-.702 1.655-1.432 3.395-2.611 4.741-.589 1.067-1.684 2.582-2.751 2.217-1.909-.617-2.471-2.722-3.145-4.35-.084-.252.197-.504.421-.42l.393.112c.365.421.59.926.843 1.403.196.365.337.926.674 1.179.645.448 1.066-.618 1.263-1.095 1.6-2.413 2.948-4.994 3.959-7.716-1.208 1.038-3.173 2.946-4.043 3.872-.056.056-.113.112-.197.112-.028.057-.112.057-.196.057-.365.028-.73-.365-.983-.618-.393-.392-1.039-1.178-.842-1.908.393-1.262 1.011-2.44 1.6-3.647.393-.786.814-1.712 1.376-2.498 1.179-.73 2.639-1.15 4.043-.982l.028.028.281.056.112.057c.365.308.617.701.87 1.094.169.365.309.701.477 1.038-.701-.252-1.768-1.515-2.583-1.206-.028 0-.056 0-.084.028-.393.196-.533.701-.702 1.094l-.112.196a33.879 33.879 0 0 0-2.414 4.714c-.085.197-.169.365-.225.561.449-.364 1.011-.897 1.235-1.094.281-.252 1.909-1.768 2.864-2.666.197-.505.477-1.038.87-1.262.534-.28.927.645 1.348.87.112.028.168.14.168.252.169.197.197.365.113.561zm2.611 6.23c-.281.168-.618.42-.927.532-.224.085-.393.057-.589.029a.365.365 0 0 1-.365-.14l-.028-.029c-.028-.028-.085-.056-.085-.112-.365-.449-.365-.533-.786-.926-.533-.533-.028-1.403-.028-1.459.169-.449 3.004-6.538 2.976-6.51-.112.028.618-1.515.927-1.767.084-.085.196-.085.281-.056a.386.386 0 0 1 .365.112c.196.28.449.617.617.926.141.14.225.308.225.533.056.252.056.505-.028.785-.197.533-.702 1.01-1.011 1.516a11.908 11.908 0 0 0-.926 1.908c-.337 1.15-.759 2.3-1.18 3.395 0 .028.028.084.028.112.197.365 6.037-5.92 5.616-5.19-.365.7-3.061 4.713-4.942 6.256-.028 0-.084.028-.14.084zm2.442-11.813c-.196-.814.225-1.993.618-2.666.112-.168.253-.168.365-.112 0-.169.112-.337.309-.253.589.253 1.432.87 1.348 1.684-.029.308-.225.533-.45.701-.393.309-.673.533-.926.982-.421.646-1.123.365-1.264-.336z" fill="#333"/><path d="M132.798 45.652c.196 1.066.028 2.02-.365 2.946-.506 1.74-2.611 2.525-4.296 2.245-1.993-.337-2.555-2.33-1.404-3.873.814-1.122 1.966-2.048 3.229-2.777-.421-1.6-.112-3.283.898-4.406l.393-.673c.337-.505.787-1.178 1.432-1.263 0-.028.028 0 .028 0 .028-.028.085-.028.141-.028.898.14 1.179 1.066 1.291 1.852v.056c.056.112.028.28-.084.393-.028.112-.056.197-.168.253-.787.533-1.573 1.15-1.91 2.076 0 .112.029.224.057.365 0 .196.028.42.084.617.646.028 2.414.084 2.583.252-.449.029-1.881.225-2.302.421-.197.085-.113.281 0 .365.168.393.308.786.393 1.179zm-2.274.028c0-.028 0-.028-.029-.056a1.29 1.29 0 0 0-.196-.45c-.056-.112-.197-.112-.281-.084-.056 0-.112 0-.168.028-1.039.646-3.061 2.077-2.527 3.564.196.59 1.039.87 1.741.786.617-.028 1.263-.225 1.6-.618.954-.954.365-2.16-.14-3.17z" fill="#333"/><path d="M141.697 43.912c-.365.702-3.032 4.714-4.941 6.257-.028.028-.056.084-.112.112-.281.169-.618.421-.927.534-.224.084-.393.056-.589.028a.386.386 0 0 1-.365-.14l-.028-.029c-.028-.028-.085-.056-.085-.112-.365-.449-.365-.533-.786-.926-.533-.533-.028-1.403-.056-1.459.113-.28 2.752-6.089 4.548-9.989h-2.583c-.449 0-.449-.673 0-.673h2.892c.758-1.684 1.292-2.834 1.264-2.834-.113.028.617-1.487.926-1.768.112-.084.197-.084.281-.056.112-.028.281 0 .365.112.196.309.449.617.646.926.112.14.224.309.224.533.056.253.056.505-.028.786l-1.095 2.3h3.903c.421 0 .421.674 0 .674h-4.24a261.046 261.046 0 0 1-2.751 5.528 11.994 11.994 0 0 0-.927 1.908 44.37 44.37 0 0 1-1.207 3.395c0 .028.028.084.056.112.225.337 6.037-5.949 5.615-5.219z" fill="#333"/><path d="M141.838 50.31c-.281.168-.618.42-.927.532-.224.085-.393.057-.589.029a.365.365 0 0 1-.365-.14l-.028-.029c-.028-.028-.085-.056-.085-.112-.364-.449-.364-.533-.786-.926-.533-.533-.028-1.403-.028-1.459.169-.449 3.004-6.538 2.976-6.51-.112.028.618-1.515.927-1.767.084-.085.196-.085.281-.056a.386.386 0 0 1 .365.112c.196.28.449.617.617.926.141.14.225.308.225.533.056.252.056.505-.028.785-.197.533-.702 1.01-1.011 1.516a11.908 11.908 0 0 0-.926 1.908c-.337 1.15-.759 2.3-1.18 3.395 0 .028.028.084.028.112.197.365 6.037-5.92 5.616-5.19-.365.7-3.061 4.713-4.942 6.256-.028 0-.084.028-.14.084zm2.442-11.813c-.196-.814.225-1.993.618-2.666.112-.168.253-.168.365-.112 0-.169.112-.337.309-.253.589.253 1.432.87 1.348 1.684-.029.308-.225.533-.45.701-.393.309-.673.533-.926.982-.421.646-1.123.365-1.264-.336z" fill="#333"/><path d="M154.051 45.483a40.426 40.426 0 0 1-3.425 2.806c-.843.617-1.966 1.768-3.061 1.852-.533.028-.898-.084-1.151-.365-3.902-2.974.534-7.323 2.864-9.989l.028-.028.197-.224a.304.304 0 0 1 .365-.056c.112-.084.28-.084.421.028.421.364.842.701 1.263 1.094.112.056.225.14.309.224.14-.252.281-.505.477-.729.225-.28.562-.449.899-.252.28.168.449.617.252.925-.449.618-.758 1.263-.898 1.993a.533.533 0 0 1-.449.449c-.421.224-1.039.056-1.039-.534.056-1.43-1.263-.56-1.741.029-.28.364-.533.785-.73 1.234-.393.786-.926 1.992-1.095 2.974 0 .337.028.702.197 1.01.112.337.365.45.618.421.954.028 3.116-1.515 3.172-1.543.702-.42 1.348-.842 1.993-1.319.478-.168.73-.224.534 0z" fill="#333"/><path d="M158.796 45.652c.196 1.066.028 2.02-.365 2.946-.506 1.74-2.611 2.525-4.296 2.245-1.993-.337-2.555-2.33-1.404-3.873.814-1.122 1.966-2.048 3.229-2.777-.421-1.6-.112-3.283.898-4.406l.393-.673c.337-.505.787-1.178 1.432-1.263 0-.028.028 0 .028 0 .028-.028.085-.028.141-.028.898.14 1.179 1.066 1.291 1.852v.056c.056.112.028.28-.084.393-.028.112-.056.197-.168.253-.787.533-1.573 1.15-1.91 2.076 0 .112.028.224.057.365 0 .196.028.42.084.617.645.028 2.414.084 2.583.252-.449.029-1.881.225-2.302.421-.197.085-.113.281 0 .365.168.393.308.786.393 1.179zm-2.246.028c0-.028 0-.028-.029-.056a1.29 1.29 0 0 0-.196-.45c-.056-.112-.197-.112-.281-.084-.056 0-.112 0-.168.028-1.039.646-3.061 2.077-2.527 3.564.196.59 1.039.87 1.741.786.617-.028 1.263-.225 1.6-.618.926-.954.337-2.16-.14-3.17z" fill="#333"/><path d="M216.042 30.753h-34.617L163.737 61h34.645l17.66-30.247z" fill="#E2A300"/><path d="M216.042 30.753L198.326 61 163.737 0h34.87l17.435 30.753z" fill="#FFB800"/></svg>