<svg width="59" height="59" viewBox="0 0 59 59" fill="none" xmlns="http://www.w3.org/2000/svg"><path d="M1.357 22.055c1.655-6.232 5.27-11.435 10.022-15.14A29.232 29.232 0 0 1 26.332.899a29.421 29.421 0 0 1 10.533.824c15.542 4.089 24.845 19.822 20.777 35.14a28.31 28.31 0 0 1-4.107 8.895c-3.124 4.507-7.48 7.987-12.475 10.1a29.303 29.303 0 0 1-18.925 1.336C6.593 53.104-2.709 37.371 1.358 22.054z" fill="#FFBD28"/><path opacity=".31" d="M11.377 6.913A29.232 29.232 0 0 1 26.33.897l27.202 44.857c-3.125 4.507-7.482 7.987-12.476 10.1L11.377 6.915z" fill="#fff"/><path d="M29.21 6.099a23.97 23.97 0 0 1 6.411.795c12.676 3.334 20.29 16.211 16.973 28.704-3.319 12.494-16.33 19.942-29.005 16.608C10.914 48.87 3.301 35.994 6.617 23.5 9.373 13.123 18.823 6.223 29.21 6.099zm.75 44.519c9.332-.11 17.821-6.309 20.298-15.634C53.24 23.76 46.4 12.192 35.011 9.197 23.622 6.2 11.933 12.894 8.952 24.117 5.972 35.34 12.812 46.91 24.2 49.904c1.926.506 3.86.737 5.76.714z" fill="#F69300"/></svg>