<svg width="13" height="13" viewBox="0 0 13 13" fill="none" xmlns="http://www.w3.org/2000/svg"><path d="M6.5 13a6.5 6.5 0 1 0 0-13 6.5 6.5 0 0 0 0 13z" fill="#2CA5E0"/><path d="M6.712 8.053l-.744.725a.384.384 0 0 1-.306.124c-.084-.004-.131-.042-.157-.121-.188-.585-.38-1.167-.566-1.754-.02-.056-.045-.084-.103-.102a141.58 141.58 0 0 1-1.329-.415.772.772 0 0 1-.195-.09c-.09-.062-.104-.161-.023-.233a.906.906 0 0 1 .259-.162c.543-.215 1.087-.423 1.632-.633l4.145-1.6c.263-.101.465.042.438.325-.017.182-.065.36-.103.54l-.9 4.25c-.073.336-.309.424-.586.219-.464-.34-.927-.685-1.39-1.027a.74.74 0 0 1-.072-.046zm-1.04.43l.016-.004c.003-.013.007-.026.009-.04.03-.32.06-.64.087-.963a.234.234 0 0 1 .083-.17c.428-.383.853-.767 1.277-1.15.471-.424.942-.85 1.411-1.275.03-.026.042-.071.061-.107-.045-.004-.09-.023-.131-.012a.602.602 0 0 0-.156.077L5.21 6.803c-.06.038-.07.068-.048.133.077.221.146.442.219.665.1.293.195.588.291.882z" fill="#fff"/></svg>