<svg width="13" height="13" viewBox="0 0 13 13" fill="none" xmlns="http://www.w3.org/2000/svg"><path d="M6.5 13a6.5 6.5 0 1 0 0-13 6.5 6.5 0 0 0 0 13z" fill="#7C529E"/><path d="M6.465 3.815c.04-.038.071-.044.214-.04.075.004.185.012.244.02.304.037.548.11.816.24.265.13.434.252.658.474.209.211.326.37.449.617.172.345.27.754.286 1.206.006.155.001.19-.033.233-.067.085-.214.07-.265-.025-.016-.031-.02-.059-.026-.182A3.047 3.047 0 0 0 8.76 5.9c-.104-.572-.378-1.03-.817-1.357-.366-.275-.744-.41-1.238-.438-.168-.01-.197-.016-.234-.045-.07-.055-.073-.185-.005-.245zm1.05 1.134a1.7 1.7 0 0 0-.677-.204c-.087-.007-.134-.025-.166-.062a.16.16 0 0 1-.013-.2c.046-.07.115-.082.326-.05.535.078.95.326 1.22.73a1.705 1.705 0 0 1 .28 1.106.191.191 0 0 1-.08.086.198.198 0 0 1-.149-.005c-.067-.035-.088-.09-.088-.237 0-.228-.059-.468-.161-.655a1.343 1.343 0 0 0-.492-.51zm.298 1.171c-.052.048-.149.05-.207.004-.041-.031-.054-.065-.065-.156a.804.804 0 0 0-.069-.283c-.078-.166-.214-.253-.445-.28-.108-.013-.141-.026-.176-.066a.165.165 0 0 1 .05-.247c.032-.016.047-.02.12-.015.047.003.115.01.15.019a.847.847 0 0 1 .421.21c.146.138.227.304.261.545.025.156.015.218-.04.269zm1.316 2.311c-.065.168-.32.483-.496.617-.16.121-.274.167-.424.175-.123.005-.175-.005-.332-.07-1.237-.51-2.225-1.268-3.01-2.312a6.607 6.607 0 0 1-.934-1.697c-.124-.343-.13-.492-.027-.666a1.94 1.94 0 0 1 .368-.359c.227-.169.332-.23.416-.25a.47.47 0 0 1 .327.074c.167.111.632.707.785 1.004.087.17.117.295.09.389-.029.1-.075.153-.283.32a1.616 1.616 0 0 0-.175.156.413.413 0 0 0-.058.2c.002.147.097.413.221.618.097.159.27.362.442.52.202.185.38.31.58.41.258.129.417.16.532.107a.333.333 0 0 0 .07-.039 7.22 7.22 0 0 0 .15-.182c.143-.18.175-.208.273-.241a.467.467 0 0 1 .378.034c.097.051.308.182.445.276.18.126.564.44.616.502.09.11.108.255.046.414z" fill="#fff"/></svg>