<svg width="162" height="141" viewBox="0 0 162 141" fill="none" xmlns="http://www.w3.org/2000/svg"><g clip-path="url(#a)"><path d="M23.231 112.286c30.975 15.837 81.192 15.837 112.167 0 30.975-15.836 30.975-41.51 0-57.346-30.975-15.837-81.192-15.837-112.167 0-30.975 15.833-30.975 41.51 0 57.346z" fill="#F5F5F5"/><path d="M124.531 103.111c1.696.98 5.032.642 7.45-.754l13.938-8.093c2.419-1.395 2.998-3.322 1.299-4.306-1.7-.98-5.04-.645-7.458.75l-13.924 8.097c-2.422 1.399-3.005 3.325-1.305 4.306zm-83.901 7.464l-14.178-8.183 14.175-8.187.004 16.37zm40.063 4.896l-22.847-13.198L80.7 89.1l-.007 26.371z" fill="#EBEBEB"/><path d="M21.455 91.438c.038-3.316-2.275-10.211-5.664-14.56-3.389-4.348-8.76-7.558-12.619-6.291-3.594 1.18-3.263 5.88 1.044 9.045 4.306 3.165 10.783 7.15 12.629 12.553l3.926 6.647.684-7.394z" fill="#FFB800"/><path opacity=".1" d="M21.455 91.438c.038-3.316-2.275-10.211-5.664-14.56-3.389-4.348-8.76-7.558-12.619-6.291-3.594 1.18-3.263 5.88 1.044 9.045 4.306 3.165 10.783 7.15 12.629 12.553l3.926 6.647.684-7.394z" fill="#000"/><path d="M21.643 95.978a.244.244 0 0 1-.216-.199C19.343 84.434 10.298 75.123 4.84 73.026a.242.242 0 0 1-.14-.314.241.241 0 0 1 .315-.14c5.559 2.14 14.772 11.6 16.886 23.12a.242.242 0 0 1-.195.282.126.126 0 0 1-.063.004z" fill="#fff"/><path d="M19.867 103.205c-.51-1.87-2.75-4.973-6.4-7.559-4.038-2.858-9.178-4.212-10.34-6.414-1.396-2.645.848-5.102 5.025-4.533 4.177.569 11.464 6.365 12.539 14.975l-.824 3.531z" fill="#FFB800"/><path d="M20.701 101.258a.24.24 0 0 1-.206-.164c-3.354-9.736-10.71-13.23-14.133-13.715a.243.243 0 0 1-.206-.272.239.239 0 0 1 .272-.206c3.783.538 11.097 4.097 14.524 14.039a.243.243 0 0 1-.15.307.25.25 0 0 1-.101.011z" fill="#fff"/><path d="M145.187 82.001s.464-6.99 4.585-12.179c4.118-5.189 3.867-7.325 1.026-8.371-2.841-1.047-9.44 5.206-7.971 13.582 1.47 8.375 2.36 6.968 2.36 6.968z" fill="#FFB800"/><path opacity=".1" d="M145.187 82.001s.464-6.99 4.585-12.179c4.118-5.189 3.867-7.325 1.026-8.371-2.841-1.047-9.44 5.206-7.971 13.582 1.47 8.375 2.36 6.968 2.36 6.968z" fill="#000"/><path d="M143.927 78.01a.162.162 0 0 1-.161-.154c-.481-7.699 4.956-14.015 6.99-15.442a.163.163 0 0 1 .189.265c-1.997 1.403-7.325 7.597-6.854 15.16a.159.159 0 0 1-.15.17h-.014z" fill="#fff"/><path d="M144.066 87.774s2.481.861 5.675 1.364c3.189.506 4.599-1.019 4.599-1.019s-1.256-2.99-3.067-3.832c0 0 3.071.625 5.538 2.272 0 0 1.947.028 2.722-2.942 0 0-1.155-1.79-5.025-2.757 0 0 2.355-.593 5.751.273.254.1 1.34-3.745 1.668-5.518.328-1.772-.384-1.755-1.766-2.125-1.382-.37-5.961-1.396-6.826-.638-.865.76-1.305 3.36-1.305 3.36s-.569-1.535-.129-3.294c0 0-1.246-.485-3.176.077-1.581.46-1.658 1.535-1.584 2.75.052.886.265 1.832.684 3.084 0 0-1.232-1.577-1.271-4.997 0 0-3.231 1.605-3.782 4.812-.307 1.731-.73 6.826 1.294 9.13z" fill="#FFB800"/><path d="M144.677 87.152a.182.182 0 0 0 .161-.1c2.575-5.35 12.144-11.562 15.574-12.229a.178.178 0 0 0 .143-.21.18.18 0 0 0-.209-.142c-3.486.677-13.212 6.993-15.826 12.427a.18.18 0 0 0 .084.24.226.226 0 0 0 .073.014z" fill="#fff"/><path d="M20.206 105.676c-.395 0-.632-.328-.632-.876V46.103L91.459 4.599v58.464c0 .897-.632 1.992-1.41 2.44l-69.271 39.995a1.203 1.203 0 0 1-.572.178z" fill="#FAFAFA"/><path d="M91.253 4.952v58.11c0 .817-.6 1.854-1.309 2.266l-69.27 39.992a.991.991 0 0 1-.472.15c-.387 0-.43-.468-.43-.67V46.218l71.48-41.266zm.408-.708l-72.293 41.74v58.819c0 .684.342 1.079.838 1.079.202 0 .432-.067.673-.206L90.15 65.68c.834-.482 1.511-1.654 1.511-2.617V4.243z" fill="#E0E0E0"/><path d="M19.368 45.984v9.82l72.293-41.737V4.244l-72.293 41.74z" fill="#FFB800"/><path d="M25.039 46.508v1.41c0 .29.202.404.453.261l22.226-12.832v-2.456L25.492 45.722c-.25.143-.453.5-.453.786z" fill="#FAFAFA"/><path d="M50.099 31.516c.25-.143.453-.028.453.261v1.41c0 .29-.202.642-.453.785l-2.384 1.375v-2.456l2.383-1.375zM19.368 42.819c0-.963.677-2.136 1.511-2.617L90.15.206c.834-.482 1.511-.09 1.511.872v3.166l-72.293 41.74V42.82z" fill="#545454"/><path d="M83.628 5.615c-.391.227-.709.775-.709 1.228 0 .454.318.635.709.409.39-.227.708-.775.708-1.229 0-.45-.317-.631-.708-.408zm2.244-1.298c-.391.227-.709.774-.709 1.228 0 .454.318.635.709.408.39-.226.708-.774.708-1.228 0-.45-.317-.632-.708-.408zm2.247-1.298c-.39.226-.708.774-.708 1.228 0 .454.317.635.708.408.39-.227.708-.774.708-1.228 0-.45-.317-.632-.708-.408z" fill="#FFB800"/><path opacity=".1" d="M68.981 20.46c-.855.496-1.55 1.696-1.55 2.684 0 .987.695 1.389 1.55.893.855-.495 1.55-1.696 1.55-2.683 0-.985-.695-1.386-1.55-.894zm-7.087 4.094c-.855.495-1.55 1.696-1.55 2.683 0 .988.695 1.39 1.55.894.855-.496 1.55-1.696 1.55-2.684 0-.988-.695-1.389-1.55-.893zm14.175-8.184c-.855.496-1.55 1.696-1.55 2.684 0 .988.695 1.389 1.55.893.855-.495 1.55-1.696 1.55-2.683 0-.988-.695-1.39-1.55-.894zm7.088-4.1c-.855.495-1.55 1.696-1.55 2.684 0 .987.695 1.388 1.55.893.855-.496 1.55-1.696 1.55-2.684 0-.987-.695-1.389-1.55-.893z" fill="#000"/><path d="M26.55 56.568l16.824-9.712c.834-.481 1.51-.09 1.51.873v16.154c0 .963-.676 2.136-1.51 2.617L26.55 76.212c-.834.482-1.511.09-1.511-.872V59.186c0-.963.673-2.133 1.51-2.618zm24.096-13.91l35.25-20.352c.834-.481 1.511-.09 1.511.873v16.154c0 .963-.677 2.135-1.51 2.617l-35.25 20.352c-.835.482-1.512.09-1.512-.872V45.276c0-.967.677-2.136 1.511-2.618zM26.55 81.122L53.295 65.68c.834-.482 1.511-.14 1.511.764s-.677 2.028-1.51 2.51L26.55 84.395c-.834.481-1.511.14-1.511-.765 0-.904.677-2.027 1.51-2.509zm0 5.73L53.295 71.41c.834-.481 1.511-.14 1.511.764s-.677 2.028-1.51 2.51L26.55 90.126c-.834.481-1.511.14-1.511-.765 0-.904.677-2.027 1.51-2.509zm0 5.727l26.745-15.442c.834-.482 1.511-.14 1.511.764s-.677 2.028-1.51 2.51L26.55 95.851c-.834.482-1.511.14-1.511-.764s.677-2.027 1.51-2.51z" fill="#E0E0E0"/><path d="M39.214 73.155c0-.58.405-1.28.907-1.57l46.382-26.78c.5-.29 1.312-.29 1.815 0l1.022.59c.5.289.908.99.908 1.57v35.553c0 .576-.409 1.28-.908 1.57L42.955 110.87c-.499.289-1.316.289-1.815 0l-1.022-.59c-.5-.286-.907-.995-.907-1.571l.003-35.553z" fill="#FFB800"/><path opacity=".4" d="M39.476 72.262l2.572 1.483L89.976 46.07a1.9 1.9 0 0 0-.639-.677l-1.026-.586c-.499-.293-1.312-.293-1.811 0L40.118 71.585a1.877 1.877 0 0 0-.642.677z" fill="#fff"/><path opacity=".1" d="M39.21 73.155v35.553c0 .58.409 1.281.911 1.571l1.023.593a1.657 1.657 0 0 0 .621.199c.237.031.485.021.715-.024.06-.014.12-.032.175-.049.038-.014.073-.025.108-.042a.545.545 0 0 1-.433-.007c-.17-.091-.279-.297-.279-.597v-35.56c0-.374.189-.656.471-.771l-.47-.276-2.573-1.483c-.164.282-.268.603-.268.893z" fill="#000"/><path opacity=".2" d="M42.051 73.745l21.48 8.026a3.49 3.49 0 0 0 4.142-1.364l3.448-5.284 19.026-29.15-18.339 29.35 18.433 7.213c-.004.293-.112.617-.283.903L71.76 75.403l-4.01 6.414a3.49 3.49 0 0 1-4.369 1.343l-2.854-1.26-18.196 29.042c-.17-.091-.279-.297-.279-.597v-.593l18.387-27.89-18.387-8.117z" fill="#000"/><path d="M80.323 32.929v81.625c0 .963.677 1.354 1.511.872l36.67-21.172c.834-.482 1.511-1.654 1.511-2.617V10.016c0-.964-.677-1.355-1.511-.873l-36.67 21.169c-.838.481-1.511 1.654-1.511 2.617z" fill="#FAFAFA" stroke="#E0E0E0" stroke-width="1.17" stroke-miterlimit="10"/><path d="M82.448 34.45c0-.226.175-.509.395-.635l4.177-2.411c.216-.126.394-.042.394.181 0 .227-.174.51-.394.636l-4.177 2.411c-.22.126-.395.045-.395-.181zm0 1.627c0-.227.175-.51.395-.635l4.177-2.412c.216-.125.394-.042.394.182 0 .226-.174.51-.394.635l-4.177 2.411c-.22.126-.395.046-.395-.181zm0 1.626c0-.227.175-.51.395-.635l4.177-2.412c.216-.125.394-.041.394.182 0 .227-.174.51-.394.635l-4.177 2.411c-.22.126-.395.046-.395-.181z" fill="#545454"/><path d="M117.178 16.772v-.653c0-.038-.028-.056-.063-.042l-.502.227a.058.058 0 0 1-.084-.038 1.05 1.05 0 0 0-.112-.248.139.139 0 0 1-.007-.122l.335-.677a.073.073 0 0 0-.031-.098l-.363-.21a.075.075 0 0 0-.101.025l-.419.628a.145.145 0 0 1-.108.056 1.062 1.062 0 0 0-.272.028c-.039.007-.07-.014-.077-.052l-.056-.548c-.004-.039-.035-.056-.066-.035l-.566.324a.15.15 0 0 0-.066.105l-.056.628a.221.221 0 0 1-.059.119 3.476 3.476 0 0 0-.314.331.104.104 0 0 1-.112.032l-.363-.126a.083.083 0 0 0-.101.039l-.415.718c-.021.035-.011.08.017.109l.29.25a.11.11 0 0 1 .028.112 3.438 3.438 0 0 0-.129.437.193.193 0 0 1-.074.108l-.516.363a.153.153 0 0 0-.059.111v.653c0 .038.027.056.062.042l.503-.227c.035-.017.073 0 .084.039.028.09.066.174.111.247a.135.135 0 0 1 .007.122l-.335.677a.075.075 0 0 0 .032.098l.363.21c.034.02.076.01.101-.025l.419-.628a.141.141 0 0 1 .108-.056c.087.004.178-.007.272-.028.038-.007.07.014.077.052l.056.548c.003.039.034.056.069.035l.566-.324a.15.15 0 0 0 .066-.105l.056-.628a.222.222 0 0 1 .059-.119c.108-.1.216-.213.314-.331a.103.103 0 0 1 .112-.032l.363.126a.083.083 0 0 0 .101-.038l.415-.72c.021-.034.011-.08-.017-.107l-.29-.252c-.028-.024-.042-.076-.028-.111.053-.147.098-.294.129-.437a.194.194 0 0 1 .074-.108l.516-.363a.156.156 0 0 0 .056-.111zm-2.209 2.048c-.527.304-.953.056-.953-.551 0-.607.426-1.347.953-1.65.527-.305.953-.06.953.55.003.608-.426 1.348-.953 1.651z" fill="#3D3D3D"/><path d="M100.169 32.86c4.285-2.475 7.758-.468 7.758 4.477 0 4.944-3.473 10.964-7.758 13.435-4.285 2.474-7.758.468-7.758-4.48-.003-4.942 3.473-10.959 7.758-13.433z" fill="#545454"/><path d="M100.113 36.754c1.389-.803 2.516-.154 2.516 1.452 0 1.605-1.127 3.555-2.516 4.358-1.389.803-2.516.154-2.516-1.452 0-1.605 1.127-3.556 2.516-4.358zm4.959 8.556c0-2.638-1.853-3.706-4.135-2.386l-1.427.823c-2.283 1.32-4.136 4.526-4.136 7.161v.719a4.24 4.24 0 0 0 1.333.206c1.04.003 2.216-.342 3.459-1.061 1.86-1.075 3.57-2.82 4.906-4.854v-.607zM93.165 58.135l14.004-8.085c.419-.241.758-.07.758.384 0 .453-.339 1.012-.758 1.256l-14.004 8.086c-.419.24-.757.07-.757-.384s.338-1.016.757-1.257z" fill="#FFB800"/><path d="M91.661 63.918l17.009-9.83c.419-.242.757-.07.757.383 0 .454-.338 1.012-.757 1.256l-17.009 9.831c-.419.24-.757.07-.757-.384.003-.454.342-1.012.757-1.256z" fill="#545454"/><path d="M109.127 62.012l4.764-2.75c.251-.143.453-.076.453.147 0 .227-.202.527-.453.67l-4.764 2.75c-.251.143-.453.077-.453-.147 0-.223.202-.523.453-.67z" fill="#3D3D3D"/><path d="M85.33 74.118l6.994-4.037c.419-.241.757-.046.757.436v4.802c0 .481-.338 1.068-.757 1.308l-6.993 4.038c-.419.24-.758.045-.758-.436v-4.802c0-.482.339-1.068.758-1.309z" fill="#FFB800"/><path d="M86.444 74.788l4.763-2.75c.252-.143.454-.076.454.147 0 .227-.202.527-.454.67l-4.763 2.75c-.251.143-.454.077-.454-.147 0-.223.206-.523.454-.67zm-.45 2.422v1.41c0 .29.202.405.454.262l4.763-2.75c.251-.143.454-.496.454-.785v-1.41c0-.29-.203-.405-.454-.262l-4.767 2.75c-.248.147-.45.496-.45.785z" fill="#FAFAFA"/><path d="M96.669 67.572l6.993-4.038c.419-.24.758-.045.758.436v4.802c0 .482-.339 1.068-.758 1.309l-6.993 4.037c-.419.241-.757.046-.757-.436V68.88c.003-.481.342-1.068.757-1.308z" fill="#FFB800"/><path d="M97.786 68.242l4.763-2.75c.251-.143.454-.08.454.146 0 .227-.203.527-.454.67l-4.763 2.75c-.252.143-.454.08-.454-.146 0-.224.202-.527.454-.67zm-.454 2.421v1.41c0 .29.202.405.454.262l4.763-2.75a.997.997 0 0 0 .454-.785v-1.41c0-.29-.203-.405-.454-.262l-4.763 2.75c-.252.143-.454.496-.454.785z" fill="#FAFAFA"/><path d="M108.01 61.021l6.994-4.037c.419-.241.757-.046.757.436v4.802c0 .481-.338 1.068-.754 1.308l-6.993 4.038c-.419.24-.757.045-.757-.436V62.33c0-.482.335-1.068.753-1.309z" fill="#FFB800"/><path d="M109.127 61.695l4.764-2.75c.251-.143.453-.077.453.147 0 .226-.202.526-.453.67l-4.764 2.75c-.251.142-.453.08-.453-.147 0-.227.202-.527.453-.67zm-.453 2.422v1.41c0 .29.202.404.453.261l4.764-2.75c.251-.143.453-.495.453-.785v-1.41c0-.29-.202-.405-.453-.261l-4.764 2.75c-.251.143-.453.495-.453.785z" fill="#FAFAFA"/><path d="M86.085 85.139l28.162-16.259c.834-.481 1.511-.14 1.511.764s-.677 2.028-1.511 2.51L86.085 88.411c-.834.482-1.511.14-1.511-.764s.677-2.028 1.51-2.51zm0 6.547l28.162-16.26c.834-.48 1.511-.139 1.511.765s-.677 2.028-1.511 2.51L86.085 94.958c-.834.481-1.511.14-1.511-.764s.677-2.028 1.51-2.51z" fill="#E0E0E0"/><path d="M95.252 94.579l9.831-5.675c.418-.24.757-.045.757.436v3.166c0 .481-.339 1.067-.757 1.308l-9.83 5.675c-.42.24-.758.045-.758-.437v-3.165c.003-.481.342-1.068.757-1.308z" fill="#FFB800"/><path d="M86.702 85.62c-.39.227-.708.775-.708 1.229 0 .453.317.635.708.408.391-.227.709-.775.709-1.228 0-.45-.318-.635-.709-.409zm2.244-1.298c-.39.227-.708.775-.708 1.229 0 .453.317.635.708.408.391-.227.709-.775.709-1.228 0-.45-.318-.636-.709-.409zm2.244-1.298c-.39.227-.708.775-.708 1.228 0 .454.317.636.708.409.39-.227.708-.775.708-1.229.004-.45-.314-.635-.708-.408zm2.247-1.298c-.39.227-.708.775-.708 1.228 0 .454.318.635.708.409.391-.227.709-.775.709-1.229 0-.45-.318-.635-.709-.408zm2.244-1.298c-.39.227-.708.774-.708 1.228 0 .454.317.635.708.408.391-.226.709-.774.709-1.228 0-.45-.318-.635-.709-.408zm2.248-1.298c-.391.226-.709.774-.709 1.228 0 .453.318.635.709.408.39-.227.708-.775.708-1.228 0-.45-.317-.635-.708-.409zm2.244-1.299c-.391.227-.709.775-.709 1.229 0 .453.318.635.709.408.39-.227.708-.775.708-1.228 0-.45-.318-.635-.708-.409zM86.702 92.174c-.39.227-.708.775-.708 1.228 0 .454.317.636.708.409.391-.227.709-.775.709-1.229 0-.45-.318-.635-.709-.408zm2.244-1.298c-.39.227-.708.775-.708 1.228 0 .454.317.635.708.409.391-.227.709-.775.709-1.229 0-.45-.318-.635-.709-.408zm2.244-1.298c-.39.227-.708.774-.708 1.228 0 .454.317.635.708.408.39-.226.708-.774.708-1.228.004-.45-.314-.635-.708-.408zm2.247-1.298c-.39.226-.708.774-.708 1.228 0 .454.318.635.708.408.391-.227.709-.775.709-1.228 0-.45-.318-.635-.709-.408zm2.244-1.299c-.39.227-.708.775-.708 1.229 0 .453.317.635.708.408.391-.227.709-.775.709-1.228 0-.45-.318-.636-.709-.409zm2.248-1.298c-.391.227-.709.775-.709 1.229 0 .453.318.635.709.408.39-.227.708-.775.708-1.228 0-.45-.317-.636-.708-.409zm2.244-1.298c-.391.227-.709.775-.709 1.228 0 .454.318.636.709.409.39-.227.708-.775.708-1.229 0-.45-.318-.635-.708-.408z" fill="#FAFAFA"/><path d="M131.667 99.14c-1.225 0-2.387-.3-3.437-.908-2.516-1.451-3.957-4.491-3.957-8.337 0-6.763 4.299-14.545 9.788-17.713 2.956-1.707 5.891-1.892 8.264-.52 2.516 1.451 3.957 4.49 3.957 8.336 0 6.763-4.299 14.546-9.788 17.714-1.644.95-3.284 1.428-4.827 1.428zm7.21-23.518c-.879 0-1.811.444-2.383.772-3.986 2.3-7.353 8.483-7.353 13.498 0 2.03.569 3.57 1.521 4.121 1.086.628 2.593-.056 3.396-.52 3.985-2.3 7.353-8.483 7.353-13.498 0-2.031-.569-3.57-1.522-4.121a2.006 2.006 0 0 0-1.012-.252z" fill="#545454"/><path d="M142.283 81.08c0-3.8-2.394-5.203-2.394-5.203.953.552 1.522 2.09 1.522 4.122 0 5.014-3.368 11.195-7.353 13.498-.803.464-2.31 1.148-3.396.52 0 0 2.021 1.252 4.809-.269 4.045-2.206 6.812-7.653 6.812-12.668zm-3.839-47.491a2.517 2.517 0 0 0-5.032 0v40.037c0 .374.244.743.737 1.026.984.569 2.575.569 3.559 0 .492-.282.736-.656.736-1.026V33.589z" fill="#3D3D3D"/><path d="M136.434 42.533c0-.928-.649-2.056-1.455-2.516-.408-.238-.775-.252-1.04-.091v-.004l-6.212 3.577-.15.091a.287.287 0 0 0-.059.035 2.05 2.05 0 0 0-.904 1.703c0 .782.433 1.459 1.072 1.811a2.066 2.066 0 0 0 1.964 0c.039-.02.081-.045.119-.066l6.25-3.602c.255-.153.415-.478.415-.938zm0 10.026c0-.928-.649-2.056-1.455-2.516-.408-.238-.775-.252-1.04-.091v-.004l-7.279 4.181-.15.09c-.021.011-.042.022-.06.036a2.046 2.046 0 0 0-.904 1.703c0 .781.433 1.458 1.072 1.81a2.066 2.066 0 0 0 1.964 0c.039-.02.081-.044.119-.065l7.318-4.202c.255-.16.415-.482.415-.942z" fill="#545454"/></g><defs><clipPath id="a"><path fill="#fff" d="M0 0h162v140.287H0z"/></clipPath></defs></svg>