<svg width="13" height="13" viewBox="0 0 13 13" fill="none" xmlns="http://www.w3.org/2000/svg"><path d="M6.5 13a6.5 6.5 0 1 0 0-13 6.5 6.5 0 0 0 0 13z" fill="#2CB742"/><path d="M6.566 2.808a3.597 3.597 0 0 0-3.08 5.454l-.65 1.93 1.993-.637a3.597 3.597 0 1 0 1.738-6.747zm0 6.621a3.017 3.017 0 0 1-1.664-.5l-1.162.373.377-1.123a3.004 3.004 0 0 1-.577-1.774A3.028 3.028 0 0 1 6.565 3.38a3.025 3.025 0 0 1 .001 6.05zm-.843-4.512c-.058-.14-.103-.146-.194-.149a2.109 2.109 0 0 0-.1-.003.442.442 0 0 0-.31.109c-.088.09-.309.302-.309.735s.316.854.36.911c.044.06.616.962 1.506 1.33.695.288.902.262 1.06.227.232-.05.52-.22.594-.426.074-.206.074-.382.052-.419-.022-.036-.08-.059-.169-.102a14.962 14.962 0 0 0-.602-.288c-.081-.028-.156-.02-.218.065-.086.119-.17.242-.237.314-.054.056-.14.065-.214.033-.098-.042-.373-.137-.71-.438a2.71 2.71 0 0 1-.49-.61c-.05-.087-.003-.14.036-.187.045-.055.086-.094.131-.146.045-.052.07-.08.098-.137.03-.06.01-.12-.013-.163-.021-.045-.197-.48-.271-.656z" fill="#fff"/></svg>